<svg width="607" height="607" viewBox="0 0 607 607" fill="none" xmlns="http://www.w3.org/2000/svg">
<path d="M332.187 11.4026C379.049 16.001 424.116 31.8091 463.582 57.4918C503.048 83.1744 535.754 117.977 558.937 158.961C582.121 199.945 595.101 245.907 596.782 292.963C598.463 340.02 588.795 386.79 568.595 429.324C548.394 471.858 518.255 508.906 480.722 537.339C443.189 565.772 399.365 584.755 352.95 592.685C306.536 600.615 258.895 597.26 214.051 582.901C169.207 568.543 128.477 543.603 95.3001 510.19L168.507 437.503C190.02 459.169 216.431 475.341 245.509 484.651C274.588 493.962 305.48 496.138 335.576 490.995C365.673 485.853 394.09 473.544 418.427 455.107C442.765 436.67 462.308 412.647 475.407 385.067C488.505 357.487 494.774 327.159 493.684 296.646C492.594 266.133 484.178 236.33 469.145 209.755C454.112 183.18 432.904 160.612 407.313 143.959C381.722 127.305 352.499 117.055 322.112 114.073L332.187 11.4026Z" fill="#56A3B0"/>
<path d="M10.29 292.671C11.761 252.611 21.4243 213.278 38.684 177.097C55.9436 140.916 80.4335 108.655 110.643 82.3042C140.852 55.9537 176.14 36.0722 214.33 23.8864C252.52 11.7006 292.801 7.46894 332.69 11.4524L322.438 114.105C296.573 111.522 270.454 114.266 245.69 122.168C220.927 130.069 198.045 142.961 178.456 160.048C158.867 177.134 142.987 198.053 131.796 221.514C120.604 244.975 114.338 270.48 113.384 296.456L10.29 292.671Z" fill="#96D9D0"/>
<path d="M94.7801 509.663C68.6978 483.262 47.8605 452.152 33.3733 417.984L128.352 377.713C137.746 399.869 151.258 420.041 168.17 437.161L94.7801 509.663Z" fill="#E8E08A"/>
<path d="M34.2047 418.833C17.3396 379.067 9.46161 336.068 11.1332 292.905L114.219 296.898C113.135 324.885 118.244 352.767 129.18 378.553L34.2047 418.833Z" fill="#CCED93"/>
</svg>
