<svg width="1420" height="430" viewBox="0 0 1420 430" fill="none" xmlns="http://www.w3.org/2000/svg">
<path d="M665.291 216.5C692.468 216.5 714.5 238.532 714.5 265.709C714.5 292.886 692.468 314.918 665.291 314.918H523.482L515.602 334.385L506.67 314.918H365.709C338.532 314.918 316.5 292.886 316.5 265.709C316.5 238.532 338.532 216.5 365.709 216.5H665.291Z" fill="white" fill-opacity="0.7"/>
<path d="M422.506 0.5C447.908 0.5002 468.5 21.0922 468.5 46.4941C468.5 71.8961 447.908 92.4891 422.506 92.4893H289.96L282.595 110.684L274.247 92.4893H142.494C117.092 92.489 96.5 71.8961 96.5 46.4941C96.5 21.0922 117.092 0.500242 142.494 0.5H422.506Z" fill="white" fill-opacity="0.7"/>
<path d="M793.5 57C793.5 31.871 813.871 11.5 839 11.5H1116C1141.13 11.5 1161.5 31.871 1161.5 57C1161.5 82.129 1141.13 102.5 1116 102.5H839C813.871 102.5 793.5 82.129 793.5 57Z" fill="white"/>
<path d="M977.594 120.5L967.5 98.5H986.5L977.594 120.5Z" fill="white"/>
<path d="M895.66 40.36C895.88 40.5 896.08 40.64 896.26 40.78C896.5 40.98 896.5 41.28 896.26 41.52L895.98 41.8H898.36L898.4 40.2C898.42 39.8 898.22 39.6 897.82 39.6H894.4C894.84 39.82 895.28 40.08 895.66 40.36ZM899.82 37.5C900.42 37.5 900.82 37.9 900.8 38.5C900.8 38.52 900.8 38.54 900.8 38.56L900.7 41.72H902.48C903.18 41.72 903.54 42.08 903.54 42.78C903.54 43.48 903.18 43.86 902.48 43.86H900.6L900.46 46.04H901.64C902.34 46.04 902.68 46.38 902.68 47.08C902.68 47.78 902.34 48.12 901.64 48.12H900.22C900.08 48.98 899.9 49.48 899.68 49.78C899.26 50.44 898.72 50.64 898.04 50.74C897.6 50.8 897.02 50.82 896.38 50.82C895.78 50.8 895.3 50.62 895.14 50.04C894.88 49.18 895.44 48.98 896.32 49.02C896.56 49.02 896.74 49.02 896.9 49.02C897.24 49.02 897.4 48.98 897.6 48.7C897.68 48.58 897.76 48.4 897.84 48.12H889.58V48.16C889.48 48.68 889.06 48.9 888.54 48.86C887.68 48.8 887.1 48.46 887.26 47.6C887.46 46.48 887.66 45.2 887.86 43.86H886.16C885.46 43.86 885.1 43.48 885.1 42.78C885.1 42.08 885.46 41.72 886.16 41.72H888.14L888.52 38.44C888.38 38.62 888.24 38.8 888.1 38.96C887.52 39.62 887 39.76 886.26 39.28C885.34 38.68 885.34 38.16 886.12 37.38C887.22 36.16 888.24 34.6 889.02 33.02C889.34 32.28 889.9 31.98 890.68 32.22C891.58 32.48 891.84 33.04 891.44 33.88C891.4 33.96 891.36 34.04 891.32 34.12H901.72C902.42 34.12 902.78 34.48 902.78 35.18C902.78 35.88 902.42 36.26 901.72 36.26H890.06L889.24 37.5H899.82ZM893.3 41.04C893.1 40.9 892.88 40.78 892.66 40.66C892.34 40.5 892.3 40.24 892.56 39.98L892.94 39.6H890.76L890.5 41.8H894.42C894.08 41.54 893.7 41.28 893.3 41.04ZM895.46 44.56C895.68 44.72 895.88 44.86 896.06 45C896.3 45.22 896.3 45.52 896.06 45.78L895.8 46.04H898.12L898.28 43.78H894.18C894.62 44.02 895.06 44.3 895.46 44.56ZM893.08 45.24C892.86 45.1 892.64 44.96 892.42 44.84C892.08 44.66 892.02 44.38 892.32 44.08L892.64 43.78H890.24L889.9 46.04H894.24C893.9 45.76 893.5 45.5 893.08 45.24Z" fill="#5A9DA3"/>
<path d="M916.82 44.34C916.82 44.66 916.96 44.8 917.28 44.8H918.22C918.62 44.8 918.82 44.6 918.82 44.2V43.16C918.82 42.84 918.68 42.7 918.36 42.7H917.42C917.02 42.7 916.82 42.9 916.82 43.3V44.34ZM911.92 34.34C911.92 33.56 912.44 33.04 913.22 33.04H922.52C923.3 33.04 923.82 33.56 923.82 34.34V48.3C923.82 49.08 923.3 49.6 922.52 49.6H913.22C912.44 49.6 911.92 49.08 911.92 48.3V34.34ZM921.56 35.72C921.56 35.32 921.36 35.12 920.96 35.12H914.7C914.3 35.12 914.1 35.32 914.1 35.72V46.92C914.1 47.32 914.3 47.52 914.7 47.52H920.96C921.36 47.52 921.56 47.32 921.56 46.92V35.72ZM920.62 45.16C920.62 45.94 920.12 46.44 919.34 46.44H916.4C915.62 46.44 915.1 45.92 915.1 45.14V42.34C915.1 41.56 915.62 41.04 916.4 41.04H916.86V39.3H915.46C914.88 39.3 914.6 39 914.6 38.42C914.6 37.84 914.88 37.56 915.46 37.56H916.86V36.44C916.86 35.82 917.16 35.52 917.78 35.52C918.4 35.52 918.7 35.82 918.7 36.44V37.56H920.26C920.84 37.56 921.12 37.84 921.12 38.42C921.12 39 920.84 39.3 920.26 39.3H918.7V41.04H919.72C920.26 41.04 920.62 41.4 920.62 41.94V45.16ZM907.86 40.54C907.8 40.62 907.76 40.68 907.7 40.76C906.9 41.76 906.32 41.8 905.82 40.62C905.52 39.92 905.58 39.44 906.06 38.84C907.22 37.3 908.3 35.28 909.1 33.18C909.34 32.48 909.84 32.18 910.56 32.4C911.28 32.62 911.52 33.06 911.28 33.78C910.92 34.72 910.54 35.64 910.12 36.56V49.7C910.12 50.44 909.74 50.82 909 50.82C908.26 50.82 907.86 50.44 907.86 49.7V40.54Z" fill="#5A9DA3"/>
<path d="M938.5 40.92C939.5 43.34 941.1 45.8 943.72 47.58C944.76 48.16 945.22 48.88 944.42 49.76C943.84 50.42 943.08 50.3 942.32 49.86C938.7 47.52 936.8 43.86 935.8 40.52C934.86 43.74 933.08 47.18 929.72 49.74C928.98 50.24 928.22 50.42 927.58 49.8C926.72 48.98 927.2 48.2 928.2 47.54C931 45.4 932.48 42.58 933.26 39.92C934.04 37.3 934.16 34.84 934.22 33.32C934.24 32.44 934.78 32.48 935.66 32.48C936.46 32.48 936.94 32.88 936.9 33.68V33.72C937 35.14 937.3 38 938.5 40.92Z" fill="#5A9DA3"/>
<path d="M960.86 42.14C961.16 42.58 961.44 43.02 961.7 43.42C962.06 44.08 961.88 44.5 961.24 44.88C960.52 45.32 960.02 45.26 959.64 44.5C959.44 44.12 959.2 43.72 958.94 43.3C958.64 42.78 958.32 42.26 958 41.76C957.6 41.14 957.76 40.68 958.4 40.32C958.98 40 959.44 40.06 959.82 40.6C960.16 41.08 960.52 41.62 960.86 42.14ZM948.24 36.56C948.24 35.78 948.76 35.26 949.54 35.26H950.5C950.66 34.66 950.8 33.98 950.92 33.3C951.04 32.4 951.44 32.04 952.34 32.18C953.28 32.32 953.5 32.88 953.2 33.78C953 34.3 952.82 34.82 952.64 35.26H954.42C955.2 35.26 955.72 35.78 955.72 36.56V38.54C956.66 37.1 957.48 35.2 958.06 33.22C958.26 32.46 958.76 32.1 959.52 32.28C960.3 32.46 960.58 32.94 960.36 33.7C960.2 34.16 960.04 34.64 959.88 35.1H964.18C964.98 35.1 965.48 35.62 965.42 37.7C965.18 45.74 964.92 48.48 964.16 49.44C963.64 50.2 963.08 50.42 962.26 50.56C961.8 50.62 961.18 50.64 960.5 50.64C959.62 50.62 959.04 50.14 958.88 49.42C958.88 49.4 958.86 49.38 958.86 49.36C958.56 48.68 958.82 48.3 959.78 48.36C960.46 48.38 961.02 48.38 961.34 48.38C961.72 48.38 961.94 48.32 962.18 48.04C962.76 47.44 963.02 44.7 963.22 38.44C963.26 37.5 963.06 37.3 962.66 37.3H959C958.66 38.04 958.32 38.76 957.96 39.38C957.56 40 956.82 40.14 956.16 39.62C956.02 39.52 955.86 39.42 955.72 39.32V47.42C955.72 48.2 955.2 48.72 954.42 48.72H949.54C948.76 48.72 948.24 48.2 948.24 47.42V36.56ZM953.58 37.94C953.58 37.54 953.38 37.34 952.98 37.34H951C950.6 37.34 950.4 37.54 950.4 37.94V40.6H953.58V37.94ZM953.58 42.68H950.4V46.02C950.4 46.42 950.6 46.62 951 46.62H952.98C953.38 46.62 953.58 46.42 953.58 46.02V42.68Z" fill="#5A9DA3"/>
<path d="M973.98 49.62C973.98 50.4 973.58 50.8 972.8 50.8C972.02 50.8 971.62 50.4 971.62 49.62V43.9C971.34 44.18 971.06 44.46 970.78 44.74C970.16 45.3 969.64 45.34 969.02 44.8C968.22 44.1 968.28 43.56 969.12 42.9C970.72 41.48 972.18 39.58 973.08 37.64V36H969.82C969.06 36 968.68 35.6 968.68 34.84C968.68 34.08 969.06 33.7 969.82 33.7H973.08V33.18C973.08 32.4 973.48 32 974.26 32C975.04 32 975.44 32.4 975.44 33.18V33.7H979.64V33.18C979.64 32.4 980.04 32 980.82 32C981.6 32 982 32.4 982 33.18V33.7H985.18C985.94 33.7 986.32 34.08 986.32 34.84C986.32 35.6 985.94 36 985.18 36H982V36.72C982 37.5 981.6 37.9 980.82 37.9C980.04 37.9 979.64 37.5 979.64 36.72V36H975.44V37C975.44 37.52 975.1 37.86 974.58 37.86H973.78L974.68 38.14C975.14 38.28 975.3 38.66 975.08 39.08C974.76 39.7 974.38 40.32 973.98 40.92V49.62ZM977.64 39.16C977.64 38.38 978.04 38 978.82 38C979.6 38 979.98 38.38 979.98 39.16V41.98C981.24 41.36 982.48 40.66 983.48 39.98C984.12 39.52 984.56 39.64 985.12 40.2C985.8 40.9 985.76 41.4 984.92 41.9C983.36 42.74 981.62 43.52 979.98 44.16V47.26C979.98 48.16 980.12 48.28 980.98 48.28C981.4 48.28 983.12 48.28 983.58 48.28C983.98 48.28 984.22 48.16 984.38 47.78C984.5 46.7 984.98 45.46 985.98 45.9C986.62 46.18 986.68 47.3 986.6 48C986.22 49.88 985.48 50.5 983.8 50.5C983.26 50.5 981.18 50.5 980.68 50.5C978.28 50.5 977.64 49.76 977.64 47.26V39.16Z" fill="#5A9DA3"/>
<path d="M990.32 47.94C990.54 47.68 990.74 47.38 990.94 47.1C991.28 46.46 991.78 46.26 992.48 46.46C993.3 46.7 993.5 47.18 993.1 47.94C992.86 48.3 992.62 48.66 992.34 49.02C992.06 49.4 991.78 49.76 991.48 50.08C990.96 50.62 990.52 50.66 989.92 50.22C989.14 49.64 989.18 49.1 989.9 48.44C990.04 48.28 990.18 48.1 990.32 47.94ZM1002.42 35.08C1002.02 35.08 1001.82 35.28 1001.82 35.68V37.42H1004.68V35.68C1004.68 35.28 1004.48 35.08 1004.08 35.08H1002.42ZM1006.96 48.14C1006.96 49.32 1006.74 49.96 1006.04 50.34C1005.58 50.6 1004.98 50.7 1004.2 50.74C1003.48 50.76 1002.78 50.52 1002.58 49.84C1002.28 48.82 1002.9 48.5 1003.96 48.52C1004.1 48.52 1004.2 48.52 1004.28 48.52C1004.56 48.52 1004.68 48.42 1004.68 48.12V44.14H1001.66C1001.46 46.06 1001.12 48.06 1000.44 49.7C1000.02 50.52 999.08 50.28 998.34 49.74C998.18 49.62 998.04 49.38 998.14 49.2L998.16 49.16L997.3 49.66C996.84 49.92 996.38 49.8 996.16 49.44C995.88 49 995.52 48.5 995.14 48C994.66 47.4 994.76 46.88 995.42 46.5C995.92 46.22 996.38 46.26 996.78 46.7C997.22 47.24 997.68 47.82 998.04 48.34C998.22 48.62 998.42 48.6 998.56 48.24C999.5 45.8 999.58 42.7 999.58 40.26V34.2C999.58 33.42 1000.1 32.9 1000.88 32.9H1005.66C1006.44 32.9 1006.96 33.42 1006.96 34.2V48.14ZM1001.82 39.54V40.26L1001.78 42H1004.68V39.54H1001.82ZM997.56 43.92H997.76C998.46 43.92 998.8 44.26 998.8 44.96C998.8 45.66 998.46 46.02 997.76 46.02H990.04C989.34 46.02 989 45.66 989 44.96C989 44.26 989.34 43.92 990.04 43.92H990.78V36.46H990.28C989.58 36.46 989.24 36.1 989.24 35.4C989.24 34.7 989.58 34.36 990.28 34.36H990.78V33.3C990.78 32.6 991.16 32.24 991.86 32.24C992.56 32.24 992.92 32.6 992.92 33.3V34.36H995.38V33.32C995.38 32.6 995.76 32.24 996.48 32.24C997.2 32.24 997.56 32.6 997.56 33.32V34.36H997.9C998.6 34.36 998.94 34.7 998.94 35.4C998.94 36.1 998.6 36.46 997.9 36.46H997.56V43.92ZM995.38 37.64V36.46H992.92V37.64H995.38ZM995.38 40.74V39.46H992.92V40.74H995.38ZM995.38 43.92V42.58H992.92V43.92H995.38Z" fill="#5A9DA3"/>
<path d="M1020.4 49.48C1020.4 50.34 1019.98 50.76 1019.12 50.76C1018.26 50.76 1017.82 50.34 1017.82 49.48V40.94C1016.32 42.58 1014.58 44.04 1012.66 45.22C1011.9 45.66 1011.28 45.62 1010.76 44.92C1010.1 44.06 1010.4 43.44 1011.34 42.92C1014.32 41.12 1016.84 38.46 1018.42 35.8H1011.7C1010.88 35.8 1010.48 35.38 1010.48 34.56C1010.48 33.74 1010.88 33.34 1011.7 33.34H1026.54C1027.36 33.34 1027.76 33.74 1027.76 34.56C1027.76 35.38 1027.36 35.8 1026.54 35.8H1021.56C1021.2 36.42 1020.82 37.06 1020.4 37.66V39.76L1021.2 39.1C1021.62 38.74 1022.2 38.72 1022.58 39C1024.28 40.26 1026.32 41.82 1027.7 43.14C1028.34 43.78 1028.16 44.24 1027.5 44.86C1026.82 45.5 1026.34 45.66 1025.72 44.96C1024.32 43.52 1022.18 41.72 1020.4 40.34V49.48Z" fill="#5A9DA3"/>
<path d="M1043.86 36.64C1044.52 36.64 1044.86 36.98 1044.86 37.64C1044.86 38.3 1044.52 38.66 1043.86 38.66H1035.94C1035.28 38.66 1034.94 38.3 1034.94 37.64C1034.94 36.98 1035.28 36.64 1035.94 36.64H1043.86ZM1041.16 44.94C1041.56 44.94 1041.76 44.74 1041.76 44.34V42.76C1041.76 42.36 1041.56 42.16 1041.16 42.16H1038.64C1038.24 42.16 1038.04 42.36 1038.04 42.76V44.34C1038.04 44.74 1038.24 44.94 1038.64 44.94H1041.16ZM1035.86 41.48C1035.86 40.7 1036.38 40.18 1037.16 40.18H1042.66C1043.44 40.18 1043.96 40.7 1043.96 41.48V45.62C1043.96 46.4 1043.44 46.92 1042.66 46.92H1037.16C1036.38 46.92 1035.86 46.4 1035.86 45.62V41.48ZM1031.48 34.26C1031.48 33.48 1032 32.96 1032.78 32.96H1047.06C1047.84 32.96 1048.36 33.48 1048.36 34.26V48.04C1048.36 49.28 1048.1 49.98 1047.34 50.36C1046.82 50.62 1046.14 50.74 1045.22 50.78C1044.48 50.8 1043.74 50.56 1043.5 49.86C1043.12 48.8 1043.84 48.46 1044.96 48.5C1045.22 48.5 1045.42 48.48 1045.54 48.48C1045.9 48.46 1046.02 48.34 1046.02 48.02V35.82C1046.02 35.42 1045.82 35.22 1045.42 35.22H1034.4C1034 35.22 1033.8 35.42 1033.8 35.82V49.64C1033.8 50.42 1033.42 50.8 1032.64 50.8C1031.86 50.8 1031.48 50.42 1031.48 49.64V34.26Z" fill="#5A9DA3"/>
<path d="M1060.22 43.18C1060.64 42.76 1060.9 42.28 1060.96 41.76L1060.74 41.78C1059.74 41.78 1058.84 41.14 1058.84 40C1058.84 38.88 1059.74 38.2 1060.8 38.2C1062.22 38.2 1062.96 39.26 1062.96 40.94C1062.96 42.06 1062.6 43.1 1061.92 43.94C1061.4 44.58 1060.7 45.12 1059.84 45.48C1059.34 45.66 1058.92 45.52 1058.72 45.02C1058.5 44.46 1058.74 44.04 1059.28 43.8C1059.66 43.62 1059.96 43.42 1060.22 43.18Z" fill="#5A9DA3"/>
<path d="M864.4 80.48C864.4 81.34 863.98 81.76 863.12 81.76C862.26 81.76 861.82 81.34 861.82 80.48V71.94C860.32 73.58 858.58 75.04 856.66 76.22C855.9 76.66 855.28 76.62 854.76 75.92C854.1 75.06 854.4 74.44 855.34 73.92C858.32 72.12 860.84 69.46 862.42 66.8H855.7C854.88 66.8 854.48 66.38 854.48 65.56C854.48 64.74 854.88 64.34 855.7 64.34H870.54C871.36 64.34 871.76 64.74 871.76 65.56C871.76 66.38 871.36 66.8 870.54 66.8H865.56C865.2 67.42 864.82 68.06 864.4 68.66V70.76L865.2 70.1C865.62 69.74 866.2 69.72 866.58 70C868.28 71.26 870.32 72.82 871.7 74.14C872.34 74.78 872.16 75.24 871.5 75.86C870.82 76.5 870.34 76.66 869.72 75.96C868.32 74.52 866.18 72.72 864.4 71.34V80.48Z" fill="#5A9DA3"/>
<path d="M884.02 64.74C884.48 65.06 884.92 65.4 885.34 65.7C886 66.22 885.98 66.7 885.46 67.36C884.92 68.04 884.42 68.16 883.76 67.6C883.36 67.26 882.92 66.92 882.46 66.58C881.96 66.18 881.44 65.78 880.92 65.42C880.24 64.94 880.22 64.4 880.76 63.78C881.22 63.26 881.72 63.14 882.3 63.52C882.86 63.9 883.44 64.32 884.02 64.74ZM875.72 71.98C875.94 71.22 876.14 70.44 876.3 69.66C876.44 68.84 876.9 68.52 877.72 68.72C878.44 68.9 878.74 69.32 878.6 70.06C878.42 70.94 878.22 71.84 877.98 72.7C877.76 73.52 877.5 74.32 877.2 75C876.88 75.68 876.42 75.8 875.72 75.54C874.86 75.22 874.62 74.72 875.02 73.9C875.28 73.3 875.5 72.66 875.72 71.98ZM892.12 72.86C892.46 73.52 892.76 74.18 893 74.78C893.24 75.5 893.02 75.94 892.34 76.28C891.46 76.74 890.94 76.6 890.64 75.66C890.44 75.12 890.18 74.54 889.9 73.96C889.56 73.26 889.2 72.54 888.84 71.86C888.4 71.14 888.6 70.6 889.36 70.24C890 69.94 890.52 70.06 890.9 70.66C891.34 71.36 891.76 72.12 892.12 72.86ZM882.22 73.6C884.92 71.06 887.1 68.1 888.62 65.2C889 64.46 889.52 64.34 890.28 64.64C891.12 64.98 891.34 65.5 890.92 66.3C888.76 70.1 885.88 73.78 882.22 76.8V77.98C882.22 79.02 882.38 79.16 883.42 79.16C883.9 79.16 885.88 79.16 886.42 79.16C886.96 79.16 887.26 79 887.44 78.44C887.58 77.28 888.1 75.9 889.16 76.36C889.88 76.68 889.96 77.84 889.86 78.62C889.42 80.8 888.58 81.54 886.64 81.54C886.02 81.54 883.68 81.54 883.12 81.54C880.68 81.54 879.84 80.9 879.72 78.68C878.88 79.26 877.98 79.8 877.06 80.3C876.38 80.64 875.84 80.58 875.36 80C874.72 79.22 874.94 78.68 875.84 78.24C877.18 77.52 878.48 76.68 879.7 75.74V68.76C879.7 67.92 880.12 67.5 880.96 67.5C881.8 67.5 882.22 67.92 882.22 68.76V73.6Z" fill="#5A9DA3"/>
<path d="M903.92 79.44C903.96 79.72 903.98 80 904 80.26C904.04 80.96 903.7 81.3 903 81.4C902.16 81.52 901.72 81.22 901.7 80.38C901.68 80.18 901.66 79.96 901.64 79.76C901.62 79.46 901.58 79.14 901.54 78.84C901.44 78.08 901.78 77.68 902.54 77.6C903.22 77.52 903.64 77.8 903.76 78.48C903.82 78.8 903.88 79.12 903.92 79.44ZM908.24 79.34C908.32 79.58 908.4 79.82 908.46 80.06C908.62 80.82 908.3 81.22 907.54 81.36C906.72 81.52 906.26 81.26 906.1 80.44C906.06 80.22 906 80 905.94 79.78C905.86 79.5 905.78 79.22 905.7 78.94C905.44 78.16 905.76 77.7 906.58 77.56C907.2 77.46 907.64 77.68 907.88 78.28C908 78.62 908.14 78.98 908.24 79.34ZM912.94 79C913.12 79.3 913.3 79.58 913.46 79.86C913.86 80.66 913.62 81.12 912.78 81.4C912 81.66 911.48 81.5 911.12 80.76C910.96 80.46 910.78 80.14 910.6 79.82C910.4 79.5 910.2 79.16 910 78.82C909.48 78.02 909.72 77.5 910.62 77.22C911.22 77.02 911.68 77.18 912.06 77.68C912.36 78.1 912.66 78.56 912.94 79ZM896.8 79.18C897.02 78.84 897.2 78.46 897.38 78.08C897.66 77.38 898.18 77.12 898.9 77.3C899.68 77.5 899.96 77.98 899.68 78.74C899.52 79.14 899.32 79.54 899.1 79.92C898.86 80.36 898.58 80.78 898.3 81.16C897.9 81.64 897.46 81.72 896.88 81.48C895.92 81.08 895.76 80.52 896.44 79.72C896.56 79.56 896.68 79.36 896.8 79.18ZM899.58 76.64C898.8 76.64 898.28 76.12 898.28 75.34V70.28C898.22 70.36 898.14 70.42 898.08 70.48C897.44 71.12 896.88 71.22 896.2 70.6C895.4 69.86 895.44 69.28 896.26 68.56C897.54 67.34 898.72 65.74 899.56 64.08C899.92 63.34 900.5 63.06 901.28 63.3C902.2 63.58 902.42 64.14 902 65C901.92 65.16 901.82 65.32 901.74 65.48H904.76C904.98 65.06 905.2 64.64 905.4 64.2C905.72 63.36 906.22 63.1 907.08 63.32C908.16 63.58 908.28 64.18 907.7 65.12C907.64 65.24 907.56 65.36 907.48 65.48H911.96C912.62 65.48 912.94 65.8 912.94 66.46C912.94 67.12 912.62 67.44 911.96 67.44H906.94V68.58H910.94C911.54 68.58 911.84 68.88 911.84 69.48C911.84 70.08 911.54 70.4 910.94 70.4H906.94V71.58H910.96C911.56 71.58 911.86 71.88 911.86 72.48C911.86 73.08 911.56 73.4 910.96 73.4H906.94V74.64H912.52C913.18 74.64 913.52 74.98 913.52 75.64C913.52 76.3 913.18 76.64 912.52 76.64H899.58ZM900.66 67.44V68.58H904.58V67.44H900.66ZM900.66 70.4V71.58H904.58V70.4H900.66ZM900.66 73.4V74.08C900.66 74.46 900.84 74.64 901.22 74.64H904.58V73.4H900.66Z" fill="#5A9DA3"/>
<path d="M930.12 81.1C929.76 81.44 929.22 81.56 928.44 81.56C927.96 81.56 926.04 81.56 925.56 81.56C924.44 81.56 923.74 81.42 923.32 81.08C922.92 80.72 922.78 80.16 922.78 79.28V78.62C922.78 77.92 923.16 77.56 923.86 77.56C924.56 77.56 924.92 77.92 924.92 78.62V79.26C924.92 79.74 925.06 79.78 925.84 79.78C926.18 79.78 927.74 79.78 928.2 79.78C928.22 79.78 928.24 79.78 928.28 79.78C928.72 79.02 929.22 78.74 930.04 79.04C930.62 79.26 930.7 79.82 930.56 80.42C930.46 80.72 930.32 80.94 930.12 81.1ZM933.54 78.86C933.76 79.1 933.96 79.34 934.12 79.58C934.5 80.18 934.34 80.58 933.7 80.9C933.06 81.22 932.6 81.12 932.24 80.52C932.08 80.28 931.92 80.04 931.72 79.78C931.52 79.54 931.3 79.28 931.08 79.04C930.52 78.46 930.64 78.02 931.38 77.68C931.82 77.48 932.22 77.52 932.58 77.84C932.9 78.16 933.24 78.5 933.54 78.86ZM932.04 64.1C932.56 64.1 932.82 64.36 932.82 64.88C932.82 65.4 932.56 65.66 932.04 65.66H926.52V66.42H932.96C933.84 66.42 934.26 66.98 933.98 68.02C933.74 68.72 933.48 69.32 933.22 69.8C933.4 69.84 933.58 69.88 933.76 69.92C933.98 69.94 934.1 70.12 934.04 70.44C933.78 71.38 933.12 71.64 931.68 71.64C931.08 71.64 928 71.64 927.42 71.64C925.02 71.64 924.2 71.32 924.14 69.96L921.38 70.06C921 70.08 920.8 69.88 920.8 69.5C920.8 69.14 921 68.94 921.36 68.92L924.14 68.82V68.12H920.78C920.38 68.12 920.18 68.32 920.18 68.72V71.46C920.18 73.88 920 77.2 919.04 79.88C919.58 79.54 920 79.1 920.3 78.62C920.56 78.02 921 77.82 921.62 78.02C922.22 78.22 922.38 78.62 922.18 79.2C921.92 79.82 921.56 80.38 921.02 80.84C920.44 81.22 919.82 81.2 919.36 80.8L918.86 80.38C918.82 80.46 918.8 80.54 918.76 80.62C918.38 81.38 917.92 81.6 917.18 81.16C916.42 80.72 916.34 80.16 916.74 79.38C917.78 76.88 917.86 73.76 917.86 71.46V67.72C917.86 66.94 918.38 66.42 919.16 66.42H924.14V64.18C924.14 63.4 924.62 63 925.4 63C926.1 63 926.52 63.36 926.52 64.06V64.1H932.04ZM926.38 69.88C926.4 70.32 926.62 70.4 927.62 70.4C928.14 70.4 930.7 70.4 931.4 70.4C932.06 70.4 932.28 70.28 932.4 69.76L931.68 69.52C931.32 69.4 931.2 69.1 931.32 68.78C931.4 68.56 931.48 68.34 931.56 68.12H926.36V68.76L930.16 68.62C930.54 68.6 930.74 68.78 930.74 69.16C930.74 69.52 930.54 69.72 930.18 69.74L926.38 69.88ZM925.72 75.74V75.06H923.36V75.46C923.36 75.66 923.44 75.74 923.64 75.74H925.72ZM929.76 75.74C930.14 75.74 930.32 75.56 930.32 75.18V75.06H927.86V75.74H929.76ZM925.72 73.98V73.32H923.88C923.52 73.32 923.36 73.48 923.36 73.84V73.98H925.72ZM930.32 73.98V73.58C930.32 73.4 930.24 73.32 930.06 73.32H927.86V73.98H930.32ZM931.26 72.2C932.04 72.2 932.56 72.72 932.56 73.5V75.56C932.56 76.34 932.04 76.86 931.26 76.86H927.1C927.54 77.16 927.94 77.5 928.24 77.8C928.34 77.9 928.32 78.04 928.18 78.16L928.14 78.2C927.34 78.86 926.16 78.52 925.36 77.88C925.02 77.6 924.84 77.16 925.18 76.88L925.22 76.86H922.52C921.74 76.86 921.22 76.34 921.22 75.56V73.5C921.22 72.72 921.74 72.2 922.52 72.2H931.26Z" fill="#5A9DA3"/>
<path d="M952.94 79.2C952.94 80.38 952.72 81.04 951.9 81.4C951.36 81.66 950.66 81.76 949.74 81.78C949 81.8 948.28 81.56 948.06 80.86C947.74 79.84 948.44 79.5 949.5 79.54C949.8 79.54 950.04 79.54 950.16 79.54C950.5 79.52 950.6 79.42 950.6 79.16V77.94H943.4V80.62C943.4 81.4 943.02 81.78 942.24 81.78C941.46 81.78 941.08 81.4 941.08 80.62V73.04C940.56 73.62 940 74.16 939.42 74.64C938.78 75.14 938.24 75.14 937.72 74.52C937.14 73.82 937.26 73.26 937.98 72.72C939.58 71.36 940.86 69.58 941.84 67.68H938.6C937.86 67.68 937.48 67.28 937.48 66.54C937.48 65.8 937.86 65.42 938.6 65.42H942.86C943.02 65 943.16 64.58 943.3 64.18C943.52 63.38 944 63.1 944.8 63.28C945.66 63.48 945.94 63.98 945.66 64.82C945.6 65.02 945.52 65.22 945.44 65.42H954.04C954.78 65.42 955.16 65.8 955.16 66.54C955.16 67.28 954.78 67.68 954.04 67.68H944.52C944.26 68.22 944 68.74 943.7 69.26H951.64C952.42 69.26 952.94 69.78 952.94 70.56V79.2ZM950.6 75.94V74.64H943.4V75.94H950.6ZM950.6 72.64V71.94C950.6 71.54 950.42 71.36 950.02 71.36H943.4V72.64H950.6Z" fill="#5A9DA3"/>
<path d="M969.7 71.92C970.7 74.34 972.3 76.8 974.92 78.58C975.96 79.16 976.42 79.88 975.62 80.76C975.04 81.42 974.28 81.3 973.52 80.86C969.9 78.52 968 74.86 967 71.52C966.06 74.74 964.28 78.18 960.92 80.74C960.18 81.24 959.42 81.42 958.78 80.8C957.92 79.98 958.4 79.2 959.4 78.54C962.2 76.4 963.68 73.58 964.46 70.92C965.24 68.3 965.36 65.84 965.42 64.32C965.44 63.44 965.98 63.48 966.86 63.48C967.66 63.48 968.14 63.88 968.1 64.68V64.72C968.2 66.14 968.5 69 969.7 71.92Z" fill="#5A9DA3"/>
<path d="M981.14 64.48C981.14 63.66 981.56 63.24 982.38 63.24C983.2 63.24 983.62 63.66 983.62 64.48V68.96H986.42C987.2 68.96 987.58 69.34 987.58 70.12C987.58 70.9 987.2 71.3 986.42 71.3H983.62V77.94L986.56 77.32C987.38 77.14 987.84 77.48 987.92 78.32C987.98 79.04 987.66 79.48 986.96 79.64C984.7 80.16 982.36 80.68 980.38 81.12C979.58 81.3 979.22 80.96 979 80.16C978.78 79.3 979.1 78.8 979.98 78.64L981.14 78.42V64.48ZM988.72 64.46C988.72 63.64 989.12 63.24 989.94 63.24C990.76 63.24 991.16 63.64 991.16 64.46V69.7C992.28 69.18 993.4 68.56 994.34 68C995.04 67.54 995.52 67.7 996.04 68.36C996.64 69.14 996.54 69.68 995.66 70.12C994.22 70.8 992.64 71.46 991.16 72.02V77.84C991.16 79 991.26 79.16 992.02 79.16C992.36 79.16 993.8 79.16 994.18 79.16C994.58 79.16 994.78 78.96 994.92 78.38C995.02 77.26 995.5 75.9 996.52 76.38C997.18 76.68 997.28 77.82 997.2 78.54C996.86 80.66 996.12 81.5 994.4 81.5C993.92 81.5 992.12 81.5 991.66 81.5C989.36 81.5 988.72 80.68 988.72 77.82V64.46Z" fill="#5A9DA3"/>
<path d="M1006.22 75.22C1006.48 74.56 1006.72 73.84 1006.92 73.12C1007.1 72.36 1007.56 72.04 1008.34 72.2C1009.12 72.36 1009.4 72.84 1009.22 73.62C1008.96 74.5 1008.68 75.36 1008.34 76.16C1008.06 76.88 1007.74 77.56 1007.4 78.16C1006.96 78.88 1006.52 79 1005.8 78.54C1005.04 78.04 1004.98 77.56 1005.48 76.8C1005.74 76.32 1006 75.78 1006.22 75.22ZM1017 75.12C1017.26 75.9 1017.46 76.68 1017.62 77.38C1017.76 78.06 1017.48 78.4 1016.82 78.64C1015.96 78.94 1015.48 78.76 1015.32 77.86C1015.2 77.24 1015 76.58 1014.8 75.9C1014.56 75.1 1014.26 74.3 1013.96 73.54C1013.66 72.8 1013.9 72.36 1014.66 72.1C1015.3 71.88 1015.78 72.04 1016.06 72.66C1016.42 73.46 1016.72 74.3 1017 75.12ZM1012.8 79.12C1012.8 80.26 1012.62 80.94 1011.88 81.34C1011.46 81.58 1010.94 81.7 1010.3 81.76C1009.54 81.78 1008.86 81.56 1008.62 80.84C1008.26 79.78 1008.84 79.4 1009.96 79.42C1010.02 79.42 1010.06 79.42 1010.1 79.42C1010.34 79.42 1010.44 79.34 1010.44 79.08V68.82H1008.14C1007.78 69.56 1007.4 70.26 1007 70.9C1006.48 71.6 1006 71.68 1005.32 71.12C1004.62 70.54 1004.54 70.08 1005.1 69.36C1006.04 67.98 1006.82 66.18 1007.38 64.32C1007.6 63.54 1008.1 63.16 1008.88 63.34C1009.68 63.52 1009.94 64.02 1009.72 64.8C1009.54 65.42 1009.34 66.02 1009.12 66.6H1016.62C1017.46 66.6 1017.94 67.16 1017.8 68.08C1017.66 69.06 1017.5 69.98 1017.34 70.76C1017.2 71.4 1016.82 71.48 1016.16 71.36C1015.5 71.24 1015.18 70.92 1015.28 70.26C1015.34 69.82 1015.4 69.32 1015.46 68.82H1012.8V79.12ZM1001.6 71.48C1001.54 71.56 1001.46 71.66 1001.4 71.74C1000.62 72.66 1000.04 72.7 999.5 71.62C999.12 70.88 999.18 70.38 999.74 69.76C1001.02 68.26 1002.2 66.28 1003.06 64.2C1003.34 63.48 1003.84 63.2 1004.58 63.44C1005.36 63.68 1005.6 64.16 1005.3 64.92C1004.86 65.92 1004.38 66.94 1003.84 67.92V80.64C1003.84 81.38 1003.46 81.76 1002.72 81.76C1001.98 81.76 1001.6 81.38 1001.6 80.64V71.48Z" fill="#5A9DA3"/>
<path d="M1034.6 68.86C1035 68.86 1035.2 68.66 1035.2 68.26V67.86H1029.84V68.42C1029.84 68.72 1029.98 68.86 1030.28 68.86H1034.6ZM1035.2 66.32V65.76C1035.2 65.48 1035.06 65.34 1034.78 65.34H1030.44C1030.04 65.34 1029.84 65.54 1029.84 65.94V66.32H1035.2ZM1036.18 63.62C1036.96 63.62 1037.48 64.14 1037.48 64.92V69.26C1037.48 70.04 1036.96 70.56 1036.18 70.56H1028.98C1028.2 70.56 1027.68 70.04 1027.68 69.26V64.92C1027.68 64.14 1028.2 63.62 1028.98 63.62H1036.18ZM1037.52 71.5C1038.16 71.5 1038.48 71.82 1038.48 72.46C1038.48 73.1 1038.16 73.44 1037.52 73.44H1033.64V75.18H1036.48C1037.1 75.18 1037.42 75.5 1037.42 76.12C1037.42 76.74 1037.1 77.06 1036.48 77.06H1033.64V79.4C1034.08 79.44 1034.52 79.46 1035 79.46C1035.42 79.46 1036.56 79.46 1037.56 79.46C1038.56 79.44 1038.94 79.7 1038.64 80.66C1038.44 81.32 1038.04 81.52 1037.36 81.52H1034.92C1032.3 81.52 1030.3 81.04 1028.96 78.58C1028.6 79.48 1028.14 80.28 1027.58 80.96C1027.06 81.52 1026.62 81.58 1026.04 81.1C1025.34 80.52 1025.36 80.06 1026 79.42C1026.86 78.34 1027.42 76.92 1027.7 75.3C1027.8 74.58 1028.24 74.08 1028.96 74.16C1029.68 74.24 1029.98 74.68 1029.86 75.4C1029.8 75.72 1029.74 76.04 1029.66 76.34C1030.1 77.5 1030.68 78.22 1031.4 78.68V73.44H1027.66C1027.02 73.44 1026.7 73.1 1026.7 72.46C1026.7 71.82 1027.02 71.5 1027.66 71.5H1037.52ZM1022.4 74.94L1021.74 75.12C1020.96 75.34 1020.5 75.08 1020.32 74.28C1020.14 73.52 1020.42 73.06 1021.18 72.88L1022.4 72.58V69H1021.36C1020.62 69 1020.26 68.64 1020.26 67.9C1020.26 67.16 1020.62 66.8 1021.36 66.8H1022.4V64.1C1022.4 63.38 1022.76 63.02 1023.48 63.02C1024.2 63.02 1024.56 63.38 1024.56 64.1V66.8H1025.44C1026.18 66.8 1026.54 67.16 1026.54 67.9C1026.54 68.64 1026.18 69 1025.44 69H1024.56V72L1025.24 71.82C1025.98 71.62 1026.42 71.94 1026.52 72.7C1026.6 73.34 1026.34 73.78 1025.72 73.96L1024.56 74.3V79C1024.56 80.1 1024.4 80.7 1023.78 81.06C1023.4 81.3 1022.92 81.42 1022.32 81.48C1021.62 81.5 1020.94 81.28 1020.76 80.6C1020.5 79.66 1021 79.32 1021.98 79.32C1022.02 79.32 1022.06 79.32 1022.08 79.32C1022.32 79.32 1022.4 79.24 1022.4 78.98V74.94Z" fill="#5A9DA3"/>
<path d="M1054.12 76.86C1054.12 77.58 1053.76 77.94 1053.04 77.94C1052.32 77.94 1051.94 77.58 1051.94 76.86V70.82C1051.94 70.1 1052.32 69.74 1053.04 69.74C1053.76 69.74 1054.12 70.1 1054.12 70.82V76.86ZM1055.9 70.34C1055.9 69.56 1056.3 69.18 1057.08 69.18C1057.86 69.18 1058.24 69.56 1058.24 70.34V79.16C1058.24 80.34 1058.02 80.94 1057.24 81.32C1056.72 81.56 1056.06 81.68 1055.24 81.7C1054.54 81.72 1053.86 81.48 1053.62 80.82C1053.24 79.82 1053.92 79.48 1055 79.5C1055.22 79.5 1055.38 79.48 1055.48 79.48C1055.8 79.48 1055.9 79.4 1055.9 79.14V70.34ZM1042.38 68.16C1041.66 68.16 1041.3 67.78 1041.3 67.06C1041.3 66.34 1041.66 65.98 1042.38 65.98H1045.52C1045.36 65.68 1045.16 65.34 1044.94 65C1044.34 64.22 1044.48 63.6 1045.42 63.28C1045.98 63.08 1046.5 63.22 1046.88 63.68C1047.16 64.04 1047.42 64.4 1047.66 64.74C1047.94 65.24 1047.74 65.74 1047.12 65.96L1047.06 65.98H1052.58C1052.96 65.4 1053.36 64.7 1053.68 64.04C1054.04 63.28 1054.54 63.04 1055.34 63.28C1056.34 63.58 1056.48 64.16 1055.92 65.04C1055.7 65.38 1055.48 65.68 1055.28 65.98H1058.22C1058.94 65.98 1059.3 66.34 1059.3 67.06C1059.3 67.78 1058.94 68.16 1058.22 68.16H1042.38ZM1044.62 74.56V75.86H1047.96V74.56H1044.62ZM1045.22 71.54C1044.82 71.54 1044.62 71.74 1044.62 72.14V72.78H1047.96V72.1C1047.96 71.72 1047.78 71.54 1047.4 71.54H1045.22ZM1042.38 70.82C1042.38 70.04 1042.9 69.52 1043.68 69.52H1048.94C1049.72 69.52 1050.24 70.04 1050.24 70.82V79.44C1050.24 80.44 1050.04 81.02 1049.38 81.36C1048.94 81.58 1048.4 81.68 1047.74 81.72C1047.1 81.74 1046.52 81.54 1046.3 80.94C1045.96 80.02 1046.46 79.7 1047.44 79.72C1047.52 79.72 1047.58 79.72 1047.62 79.72C1047.88 79.72 1047.96 79.64 1047.96 79.4V77.62H1044.62V80.56C1044.62 81.3 1044.24 81.68 1043.5 81.68C1042.76 81.68 1042.38 81.3 1042.38 80.56V70.82Z" fill="#5A9DA3"/>
<path d="M1068.58 66.7C1067.9 66.7 1067.56 66.34 1067.56 65.66C1067.56 64.98 1067.9 64.64 1068.58 64.64H1072.66V64.14C1072.66 63.4 1073.06 63.02 1073.8 63.02C1074.54 63.02 1074.92 63.4 1074.92 64.14V64.64H1079.06C1079.74 64.64 1080.08 64.98 1080.08 65.66C1080.08 66.34 1079.74 66.7 1079.06 66.7H1068.58ZM1071.46 78.8C1070.82 79.8 1070.06 80.66 1069.08 81.32C1068.5 81.68 1068.04 81.7 1067.6 81.18C1067.02 80.48 1067.26 80 1068.04 79.54C1069.04 78.82 1069.8 77.9 1070.36 76.78L1068.64 77.14L1067.9 77.28C1067.24 77.42 1066.88 77.16 1066.78 76.5C1066.68 75.86 1066.96 75.5 1067.6 75.4L1067.86 75.36C1068.26 74.74 1068.72 74.02 1069.18 73.24C1068.76 72.58 1068.14 71.78 1067.48 71.1C1067.1 70.72 1067.16 70.1 1067.46 69.64C1067.68 69.28 1068.08 69.12 1068.38 69.4L1068.4 69.42C1068.72 68.82 1069.04 68.16 1069.3 67.56C1069.52 66.96 1069.88 66.82 1070.48 67.06C1071.1 67.3 1071.2 67.74 1070.88 68.34C1070.42 69.14 1069.96 69.96 1069.56 70.62C1069.8 70.9 1070 71.16 1070.16 71.42C1070.44 70.88 1070.7 70.36 1070.92 69.86C1071.16 69.32 1071.52 69.2 1072.06 69.4C1072.66 69.64 1072.8 70 1072.5 70.58C1071.68 72.08 1070.76 73.68 1069.88 75.02L1071.12 74.8C1071.12 74.78 1071.14 74.74 1071.14 74.72C1071.28 74.1 1071.64 73.84 1072.26 73.96C1072.88 74.08 1073.1 74.5 1072.96 75.12C1072.62 76.52 1072.12 77.74 1071.46 78.8ZM1073.46 73.86L1073.44 73.9C1073.42 73.92 1073.36 73.88 1073.32 73.86C1072.82 73.42 1072.04 72.44 1072.4 71.9C1073.08 70.76 1073.66 69.34 1074.06 67.88C1074.22 67.26 1074.64 66.96 1075.26 67.1C1075.88 67.24 1076.1 67.62 1075.94 68.24C1075.84 68.62 1075.72 69 1075.58 69.38H1076.6C1076.76 68.88 1076.92 68.34 1077.04 67.84C1077.2 67.16 1077.56 66.96 1078.22 67.12C1078.92 67.3 1079.08 67.68 1078.82 68.36L1078.4 69.38H1079.2C1079.8 69.38 1080.1 69.68 1080.1 70.28C1080.1 70.88 1079.8 71.18 1079.2 71.18H1078.18V72.66H1079C1079.54 72.66 1079.8 72.92 1079.8 73.46C1079.8 74 1079.54 74.28 1079 74.28H1078.18V75.82H1079.08C1079.62 75.82 1079.88 76.08 1079.88 76.62C1079.88 77.16 1079.62 77.42 1079.08 77.42H1078.18V79.08H1079.54C1080.14 79.08 1080.44 79.38 1080.44 79.98C1080.44 80.58 1080.14 80.88 1079.54 80.88H1074.76C1073.98 80.88 1073.46 80.36 1073.46 79.58V73.86ZM1075.3 75.82H1076.52V74.28H1075.3V75.82ZM1076.52 71.18H1075.3V72.66H1076.52V71.18ZM1075.3 78.74C1075.3 78.98 1075.4 79.08 1075.64 79.08H1076.52V77.42H1075.3V78.74ZM1063.9 74.5L1063.2 74.74C1062.42 75 1061.96 74.74 1061.8 73.94C1061.66 73.22 1061.84 72.82 1062.54 72.62C1062.96 72.5 1063.42 72.36 1063.9 72.2V69H1063.04C1062.3 69 1061.94 68.64 1061.94 67.9C1061.94 67.16 1062.3 66.8 1063.04 66.8H1063.9V64.02C1063.9 63.34 1064.24 63 1064.92 63C1065.6 63 1065.94 63.34 1065.94 64.02V66.8H1066.22C1066.96 66.8 1067.32 67.16 1067.32 67.9C1067.32 68.64 1066.96 69 1066.22 69H1065.94V71.56L1066.22 71.46C1066.94 71.22 1067.36 71.48 1067.5 72.24C1067.6 72.84 1067.36 73.26 1066.78 73.48L1065.94 73.78V79.38C1065.94 80.42 1065.74 81.02 1065.16 81.36C1064.82 81.58 1064.36 81.7 1063.76 81.76C1063.08 81.78 1062.46 81.56 1062.28 80.92C1062.04 80.04 1062.52 79.7 1063.44 79.72C1063.5 79.72 1063.54 79.72 1063.58 79.72C1063.82 79.72 1063.9 79.64 1063.9 79.38V74.5Z" fill="#5A9DA3"/>
<path d="M1098.54 79.2C1098.54 80.38 1098.32 81.04 1097.5 81.4C1096.96 81.66 1096.26 81.76 1095.34 81.78C1094.6 81.8 1093.88 81.56 1093.66 80.86C1093.34 79.84 1094.04 79.5 1095.1 79.54C1095.4 79.54 1095.64 79.54 1095.76 79.54C1096.1 79.52 1096.2 79.42 1096.2 79.16V77.94H1089V80.62C1089 81.4 1088.62 81.78 1087.84 81.78C1087.06 81.78 1086.68 81.4 1086.68 80.62V73.04C1086.16 73.62 1085.6 74.16 1085.02 74.64C1084.38 75.14 1083.84 75.14 1083.32 74.52C1082.74 73.82 1082.86 73.26 1083.58 72.72C1085.18 71.36 1086.46 69.58 1087.44 67.68H1084.2C1083.46 67.68 1083.08 67.28 1083.08 66.54C1083.08 65.8 1083.46 65.42 1084.2 65.42H1088.46C1088.62 65 1088.76 64.58 1088.9 64.18C1089.12 63.38 1089.6 63.1 1090.4 63.28C1091.26 63.48 1091.54 63.98 1091.26 64.82C1091.2 65.02 1091.12 65.22 1091.04 65.42H1099.64C1100.38 65.42 1100.76 65.8 1100.76 66.54C1100.76 67.28 1100.38 67.68 1099.64 67.68H1090.12C1089.86 68.22 1089.6 68.74 1089.3 69.26H1097.24C1098.02 69.26 1098.54 69.78 1098.54 70.56V79.2ZM1096.2 75.94V74.64H1089V75.94H1096.2ZM1096.2 72.64V71.94C1096.2 71.54 1096.02 71.36 1095.62 71.36H1089V72.64H1096.2Z" fill="#5A9DA3"/>
<path d="M1151.86 316.5C1169.89 316.5 1184.5 331.114 1184.5 349.142C1184.5 367.169 1169.89 381.783 1151.86 381.783H1057.79L1052.57 394.696L1046.64 381.783H953.142C935.114 381.783 920.5 367.169 920.5 349.142C920.5 331.114 935.114 316.5 953.142 316.5H1151.86Z" fill="white" fill-opacity="0.7"/>
<path d="M1290.86 87.5C1308.89 87.5 1323.5 102.114 1323.5 120.142C1323.5 138.169 1308.89 152.783 1290.86 152.783H1196.79L1191.57 165.696L1185.64 152.783H1092.14C1074.11 152.783 1059.5 138.169 1059.5 120.142C1059.5 102.114 1074.11 87.5 1092.14 87.5H1290.86Z" fill="white" fill-opacity="0.7"/>
<path d="M678.968 66.5C702.458 66.5001 721.5 85.5431 721.5 109.033C721.5 132.523 702.458 151.565 678.968 151.565H556.399L549.588 168.392L541.868 151.565H420.032C396.542 151.565 377.5 132.523 377.5 109.033C377.5 85.5432 396.542 66.5002 420.032 66.5H678.968Z" fill="white" fill-opacity="0.7"/>
<path d="M452.64 110.72C452.64 109.94 453.16 109.42 453.94 109.42H456.86C456.42 109.22 455.98 109.04 455.54 108.86C454.82 108.58 454.78 108.18 455.34 107.64C455.64 107.36 455.96 107.26 456.36 107.4C457.02 107.64 457.72 107.92 458.42 108.22C458.94 107.92 459.5 107.54 460.02 107.18H453.94C453.4 107.18 453.12 106.88 453.12 106.34C453.12 105.8 453.4 105.52 453.94 105.52H462.26C463.28 105.52 463.56 106.06 462.8 107.12C462 108.02 461.14 108.58 460.26 109.06L460.94 109.42H462.9C463.68 109.42 464.2 109.94 464.2 110.72V117.74C464.2 118.72 464 119.14 463.36 119.44C462.92 119.64 462.36 119.7 461.62 119.72C461.08 119.74 460.56 119.56 460.38 119.04C460.12 118.3 460.58 118.02 461.36 118.04C461.5 118.04 461.6 118.04 461.66 118.04C461.9 118.04 461.98 117.96 461.98 117.74V116.58H459.42V118.42C459.42 119.16 459.06 119.52 458.32 119.52C457.58 119.52 457.22 119.16 457.22 118.42V116.58H454.82V118.68C454.82 119.4 454.46 119.76 453.74 119.76C453.02 119.76 452.64 119.4 452.64 118.68V110.72ZM454.82 113.86V114.92H457.22V113.86H454.82ZM461.98 114.92V113.86H459.42V114.92H461.98ZM455.36 111.16C455 111.16 454.82 111.34 454.82 111.7V112.2H457.22V111.16H455.36ZM461.98 112.2V111.62C461.98 111.3 461.84 111.16 461.52 111.16H459.42V112.2H461.98ZM463.96 102.72C464.64 102.72 464.98 103.06 464.98 103.74C464.98 104.42 464.64 104.78 463.96 104.78H452.28C451.88 104.78 451.68 104.98 451.68 105.38V109.1C451.68 111.92 451.36 115.86 449.5 118.66C448.96 119.34 448.46 119.52 447.84 118.92C447.22 118.32 447.28 117.74 447.8 117.04C448.56 115.84 448.98 114.46 449.2 113.08L448.14 113.72C447.38 114.18 446.88 114.02 446.62 113.18C446.4 112.5 446.48 112.1 447.12 111.8C447.8 111.48 448.6 111.08 449.44 110.66L449.46 109.1V108.28L448.54 108.76C448.06 109.02 447.66 108.84 447.58 108.42C447.4 107.76 447.14 106.96 446.84 106.22C446.6 105.66 446.76 105.18 447.32 104.92C447.88 104.66 448.3 104.8 448.56 105.36C448.94 106.2 449.28 107.12 449.46 107.84V104.02C449.46 103.24 449.98 102.72 450.76 102.72H455.6V102.24C455.6 101.42 456.04 101 456.86 101C457.68 101 458.1 101.42 458.1 102.24V102.72H463.96Z" fill="#5A9DA3"/>
<path d="M477.88 110.16V112.2H482.28C483.06 112.2 483.58 112.72 483.58 113.5V117.72C483.58 118.5 483.06 119.02 482.28 119.02H471.3C470.52 119.02 470 118.5 470 117.72V113.5C470 112.72 470.52 112.2 471.3 112.2H475.46V110.16H469.04C468.3 110.16 467.92 109.78 467.92 109.04C467.92 108.3 468.3 107.92 469.04 107.92H475.46V107.14C475.46 106.34 475.88 105.94 476.68 105.94C477.48 105.94 477.88 106.34 477.88 107.14V107.92H484.36C485.1 107.92 485.48 108.3 485.48 109.04C485.48 109.78 485.1 110.16 484.36 110.16H477.88ZM480.52 116.8C480.92 116.8 481.12 116.6 481.12 116.2V115.02C481.12 114.62 480.92 114.42 480.52 114.42H472.94C472.54 114.42 472.34 114.62 472.34 115.02V116.2C472.34 116.6 472.54 116.8 472.94 116.8H480.52ZM474.34 104.84V105.66C474.34 106.44 473.94 106.84 473.16 106.84C472.38 106.84 471.98 106.44 471.98 105.66V104.84H469.06C468.32 104.84 467.96 104.48 467.96 103.74C467.96 103 468.32 102.64 469.06 102.64H471.98V102.18C471.98 101.4 472.38 101 473.16 101C473.94 101 474.34 101.4 474.34 102.18V102.64H479V102.18C479 101.4 479.4 101 480.18 101C480.96 101 481.36 101.4 481.36 102.18V102.64H484.32C485.06 102.64 485.42 103 485.42 103.74C485.42 104.48 485.06 104.84 484.32 104.84H481.36V105.66C481.36 106.44 480.96 106.84 480.18 106.84C479.4 106.84 479 106.44 479 105.66V104.84H474.34Z" fill="#5A9DA3"/>
<path d="M495.18 108.82C495.26 109 495.34 109.2 495.4 109.38C495.48 109.6 495.54 109.8 495.6 109.98C495.66 110.24 495.52 110.48 495.24 110.56L494.38 110.82H496.44V108.3H494.92C495.02 108.46 495.1 108.64 495.18 108.82ZM499.64 108.82C499.7 108.64 499.76 108.46 499.8 108.3H498.36V110.82H500.22L499.56 110.64C499.24 110.54 499.1 110.28 499.22 109.98C499.3 109.8 499.36 109.62 499.44 109.42C499.52 109.22 499.58 109.02 499.64 108.82ZM493.5 109.24C493.46 109.14 493.42 109.02 493.38 108.92C493.32 108.8 493.36 108.7 493.5 108.66L494.82 108.3H492.58V110.22C492.58 110.62 492.78 110.82 493.18 110.82H493.96C493.92 110.52 493.82 110.16 493.7 109.8C493.64 109.6 493.58 109.42 493.5 109.24ZM501.5 109.28C501.4 109.46 501.3 109.66 501.2 109.84C501.02 110.2 500.84 110.54 500.68 110.82H501.78C502.18 110.82 502.38 110.62 502.38 110.22V108.3H500.24L501.2 108.54C501.56 108.62 501.68 108.9 501.52 109.22C501.52 109.24 501.5 109.26 501.5 109.28ZM491.9 112.28C491.12 112.28 490.6 111.76 490.6 110.98V107.02L490.24 107.16C489.6 107.42 489.14 107.34 488.76 106.76C488.24 105.96 488.64 105.46 489.54 105.14C492 104.2 494.34 102.78 495.78 101.42C495.98 101.2 496.46 101 496.9 101H497.76C498.16 101 498.62 101.18 498.9 101.44C500.74 103.02 503.08 104.26 505.44 105.04C506.44 105.34 506.72 105.8 506.12 106.66C505.72 107.24 505.24 107.34 504.56 107.1L504.46 107.06V110.98C504.46 111.76 503.94 112.28 503.16 112.28H491.9ZM494.7 106.1C494.28 106.1 494 105.82 494 105.4V105.34C493.1 105.88 492.14 106.36 491.14 106.8H503.84C502.9 106.4 501.94 105.92 501 105.4V105.82C501 106 500.9 106.1 500.72 106.1H494.7ZM498.38 103.7C498.02 103.42 497.68 103.14 497.38 102.86C496.8 103.42 496.1 103.98 495.28 104.54H498.98C499.38 104.54 499.42 104.42 499.08 104.2C498.84 104.02 498.6 103.86 498.38 103.7ZM500.36 117.7C500.76 117.7 500.96 117.5 500.96 117.1V116.86H494.04V117.34C494.04 117.58 494.16 117.7 494.4 117.7H500.36ZM500.96 115.3V114.84C500.96 114.6 500.86 114.5 500.62 114.5H494.64C494.24 114.5 494.04 114.7 494.04 115.1V115.3H500.96ZM493 119.26C492.22 119.26 491.7 118.74 491.7 117.96V114.24C491.7 113.46 492.22 112.94 493 112.94H502.12C502.9 112.94 503.42 113.46 503.42 114.24V117.96C503.42 118.74 502.9 119.26 502.12 119.26H493Z" fill="#5A9DA3"/>
<path d="M511.8 103.84C511.58 103.66 511.34 103.48 511.1 103.3C510.4 102.82 510.38 102.3 511 101.72C511.42 101.34 511.86 101.26 512.36 101.54C512.7 101.76 513.06 102.02 513.4 102.26C513.64 102.44 513.88 102.62 514.1 102.8C514.64 103.32 514.6 103.76 514.06 104.28C513.46 104.86 512.92 104.88 512.34 104.28C512.16 104.14 511.98 103.98 511.8 103.84ZM512.64 106.18C512.9 106.34 513.12 106.5 513.34 106.68C513.92 107.18 513.9 107.64 513.36 108.2C512.78 108.8 512.24 108.84 511.64 108.26C511.46 108.12 511.28 107.96 511.1 107.82C510.86 107.64 510.6 107.46 510.34 107.3C509.62 106.86 509.6 106.32 510.2 105.72C510.6 105.32 511.04 105.22 511.54 105.48C511.9 105.7 512.28 105.94 512.64 106.18ZM515.06 109.04C515.06 108.26 515.58 107.74 516.36 107.74H516.54V102.9C516.54 102.12 517.06 101.6 517.84 101.6H523.82C524.6 101.6 525.12 102.12 525.12 102.9V107.74H525.92C526.32 107.74 526.58 108 526.58 108.4V114.46C526.58 115.4 526.42 115.9 525.82 116.22C525.52 116.38 525.14 116.46 524.7 116.5C523.8 116.52 523.2 116.08 523.04 115.36C522.98 115.18 522.92 114.98 522.84 114.82H519.44C518.66 114.82 518.14 114.3 518.14 113.52V111.68C518.14 110.9 518.66 110.38 519.44 110.38H522.04C522.82 110.38 523.34 110.9 523.34 111.68V114.7H524.14C524.36 114.68 524.42 114.62 524.42 114.44V110.16C524.42 109.76 524.22 109.56 523.82 109.56H517.72C517.32 109.56 517.12 109.76 517.12 110.16V115.2C517.12 115.98 516.6 116.5 515.82 116.5H515.28C516.06 116.9 517.04 117.1 518.2 117.16C520.14 117.24 523.56 117.22 526.2 117.08C527.3 117 527.58 117.36 527.26 118.42C527.06 119.1 526.76 119.36 526.06 119.4C523.64 119.48 520.26 119.5 518.18 119.42C515.72 119.32 514.06 118.72 512.8 117.18C512.3 117.64 511.78 118.08 511.24 118.54C510.44 119.22 509.78 119.18 509.34 118.24C509 117.5 509.14 116.96 509.84 116.52C510.38 116.14 510.96 115.74 511.48 115.32V112.9C511.48 112.5 511.28 112.3 510.88 112.3H510.36C509.62 112.3 509.26 111.94 509.26 111.2C509.26 110.46 509.62 110.1 510.36 110.1H512.5C513.28 110.1 513.8 110.62 513.8 111.4V115.16C514.12 115.68 514.54 116.08 515.06 116.38V109.04ZM518.6 107.74H519.78V105.9C519.78 105.12 520.3 104.6 521.08 104.6H523V103.92C523 103.54 522.82 103.36 522.44 103.36H519.2C518.8 103.36 518.6 103.56 518.6 103.96V107.74ZM523 106.1H522.06C521.66 106.1 521.46 106.3 521.46 106.7V107.74H523V106.1ZM521.62 113.3V112.52C521.62 112.12 521.42 111.92 521.02 111.92H520.22C519.96 111.92 519.84 112.04 519.84 112.3V112.7C519.84 113.1 520.04 113.3 520.44 113.3H521.62Z" fill="#5A9DA3"/>
<path d="M546.98 108.92C547.78 108.92 548.18 109.32 548.18 110.12C548.18 110.92 547.78 111.34 546.98 111.34H538.78C538.06 113.04 537.22 114.86 536.4 116.38L543.46 116C543.1 115.48 542.74 114.96 542.36 114.48C541.78 113.72 541.96 113.18 542.84 112.78C543.46 112.5 543.96 112.6 544.4 113.12C545.62 114.6 546.8 116.32 547.6 117.76C548 118.54 547.76 118.94 546.98 119.34C546.14 119.78 545.54 119.62 545.12 118.76C545.06 118.62 544.98 118.48 544.9 118.34C540.42 118.66 535.7 118.92 532.16 119.12C531.36 119.16 531.14 118.78 531.02 117.98C530.9 117.08 531.28 116.6 532.18 116.56L533.72 116.5C534.44 114.98 535.22 113.04 535.76 111.34H531.3C530.5 111.34 530.1 110.92 530.1 110.12C530.1 109.32 530.5 108.92 531.3 108.92H537.76V106.06H532.82C532.02 106.06 531.62 105.66 531.62 104.86C531.62 104.06 532.02 103.66 532.82 103.66H537.76V102.24C537.76 101.42 538.2 101 539.02 101C539.84 101 540.26 101.42 540.26 102.24V103.66H545.56C546.36 103.66 546.76 104.06 546.76 104.86C546.76 105.66 546.36 106.06 545.56 106.06H540.26V108.92H546.98Z" fill="#5A9DA3"/>
<path d="M559.42 112.18C559.84 111.76 560.1 111.28 560.16 110.76L559.94 110.78C558.94 110.78 558.04 110.14 558.04 109C558.04 107.88 558.94 107.2 560 107.2C561.42 107.2 562.16 108.26 562.16 109.94C562.16 111.06 561.8 112.1 561.12 112.94C560.6 113.58 559.9 114.12 559.04 114.48C558.54 114.66 558.12 114.52 557.92 114.02C557.7 113.46 557.94 113.04 558.48 112.8C558.86 112.62 559.16 112.42 559.42 112.18Z" fill="#5A9DA3"/>
<path d="M581.64 111.78L581.46 113.02H588.74C589.44 113.02 589.78 113.36 589.78 114.06C589.78 114.76 589.44 115.1 588.74 115.1H583.2C584.22 116.24 585.76 116.94 587.84 117.32C589.1 117.46 589.96 117.94 589.28 119.02C588.9 119.62 588.14 119.72 587.44 119.62C584.14 119.02 582.08 117.72 580.72 115.4C579.8 117.28 578 118.62 574.22 119.46C573.48 119.6 572.42 119.56 572.06 118.9C571.52 117.92 572.62 117.4 573.72 117.22C575.98 116.72 577.24 116.04 577.98 115.1H572.76C572.06 115.1 571.72 114.76 571.72 114.06C571.72 113.36 572.06 113.02 572.76 113.02H578.92C579 112.64 579.06 112.22 579.12 111.78H572.88C572.18 111.78 571.82 111.4 571.82 110.7C571.82 110 572.18 109.64 572.88 109.64H579.44V108.62H574.56C573.9 108.62 573.56 108.26 573.56 107.6C573.56 106.94 573.9 106.6 574.56 106.6H579.44V105.58H573.68C572.98 105.58 572.64 105.22 572.64 104.52C572.64 103.82 572.98 103.48 573.68 103.48H576.08C575.94 103.18 575.76 102.86 575.56 102.54C575.24 102.1 575.38 101.66 575.9 101.46L576.18 101.34C576.82 101.08 577.76 101.94 578.14 102.52C578.32 102.78 578.46 103.34 578.16 103.46L578.12 103.48H583.18L582.8 103.38C582.64 103.32 582.6 103.22 582.68 103.1C582.9 102.78 583.14 102.4 583.36 102.02C583.72 101.28 584.2 101.02 584.98 101.22C586.02 101.48 586.1 102.08 585.48 102.96C585.34 103.14 585.2 103.32 585.06 103.48H587.72C588.42 103.48 588.76 103.82 588.76 104.52C588.76 105.22 588.42 105.58 587.72 105.58H581.88V106.6H586.98C587.64 106.6 587.98 106.94 587.98 107.6C587.98 108.26 587.64 108.62 586.98 108.62H581.88V109.64H588.5C589.2 109.64 589.56 110 589.56 110.7C589.56 111.4 589.2 111.78 588.5 111.78H581.64Z" fill="#5A9DA3"/>
<path d="M599.18 108.82C599.26 109 599.34 109.2 599.4 109.38C599.48 109.6 599.54 109.8 599.6 109.98C599.66 110.24 599.52 110.48 599.24 110.56L598.38 110.82H600.44V108.3H598.92C599.02 108.46 599.1 108.64 599.18 108.82ZM603.64 108.82C603.7 108.64 603.76 108.46 603.8 108.3H602.36V110.82H604.22L603.56 110.64C603.24 110.54 603.1 110.28 603.22 109.98C603.3 109.8 603.36 109.62 603.44 109.42C603.52 109.22 603.58 109.02 603.64 108.82ZM597.5 109.24C597.46 109.14 597.42 109.02 597.38 108.92C597.32 108.8 597.36 108.7 597.5 108.66L598.82 108.3H596.58V110.22C596.58 110.62 596.78 110.82 597.18 110.82H597.96C597.92 110.52 597.82 110.16 597.7 109.8C597.64 109.6 597.58 109.42 597.5 109.24ZM605.5 109.28C605.4 109.46 605.3 109.66 605.2 109.84C605.02 110.2 604.84 110.54 604.68 110.82H605.78C606.18 110.82 606.38 110.62 606.38 110.22V108.3H604.24L605.2 108.54C605.56 108.62 605.68 108.9 605.52 109.22C605.52 109.24 605.5 109.26 605.5 109.28ZM595.9 112.28C595.12 112.28 594.6 111.76 594.6 110.98V107.02L594.24 107.16C593.6 107.42 593.14 107.34 592.76 106.76C592.24 105.96 592.64 105.46 593.54 105.14C596 104.2 598.34 102.78 599.78 101.42C599.98 101.2 600.46 101 600.9 101H601.76C602.16 101 602.62 101.18 602.9 101.44C604.74 103.02 607.08 104.26 609.44 105.04C610.44 105.34 610.72 105.8 610.12 106.66C609.72 107.24 609.24 107.34 608.56 107.1L608.46 107.06V110.98C608.46 111.76 607.94 112.28 607.16 112.28H595.9ZM598.7 106.1C598.28 106.1 598 105.82 598 105.4V105.34C597.1 105.88 596.14 106.36 595.14 106.8H607.84C606.9 106.4 605.94 105.92 605 105.4V105.82C605 106 604.9 106.1 604.72 106.1H598.7ZM602.38 103.7C602.02 103.42 601.68 103.14 601.38 102.86C600.8 103.42 600.1 103.98 599.28 104.54H602.98C603.38 104.54 603.42 104.42 603.08 104.2C602.84 104.02 602.6 103.86 602.38 103.7ZM604.36 117.7C604.76 117.7 604.96 117.5 604.96 117.1V116.86H598.04V117.34C598.04 117.58 598.16 117.7 598.4 117.7H604.36ZM604.96 115.3V114.84C604.96 114.6 604.86 114.5 604.62 114.5H598.64C598.24 114.5 598.04 114.7 598.04 115.1V115.3H604.96ZM597 119.26C596.22 119.26 595.7 118.74 595.7 117.96V114.24C595.7 113.46 596.22 112.94 597 112.94H606.12C606.9 112.94 607.42 113.46 607.42 114.24V117.96C607.42 118.74 606.9 119.26 606.12 119.26H597Z" fill="#5A9DA3"/>
<path d="M621.16 117.24V115.92H617.98V116.64C617.98 117.04 618.18 117.24 618.58 117.24H621.16ZM621.16 114.18V112.92H618.58C618.18 112.92 617.98 113.12 617.98 113.52V114.18H621.16ZM623.4 115.92V117.24H626.08C626.48 117.24 626.68 117.04 626.68 116.64V115.92H623.4ZM623.4 112.92V114.18H626.68V113.48C626.68 113.1 626.5 112.92 626.12 112.92H623.4ZM615.7 112.34C615.7 111.56 616.22 111.04 617 111.04H627.78C628.56 111.04 629.08 111.56 629.08 112.34V117.84C629.08 118.62 628.56 119.14 627.78 119.14H617C616.22 119.14 615.7 118.62 615.7 117.84V112.34ZM616.82 109.76L614.7 110.36C613.94 110.58 613.44 110.3 613.24 109.54C613.04 108.76 613.34 108.3 614.14 108.12L614.62 108.02L614.36 103.48C614.3 102.54 614.84 102.1 615.76 102.34L616.06 102.42C617.24 102.1 618.48 101.7 619.46 101.28C620.06 101.02 620.42 101.16 620.84 101.66C621.46 102.36 621.34 102.84 620.46 103.16C619.26 103.56 617.92 103.9 616.7 104.14L616.92 107.5L619.14 106.96C619 106.74 618.88 106.54 618.74 106.32C618.3 105.68 618.48 105.2 619.18 104.86C619.74 104.6 620.2 104.68 620.56 105.16C621.12 105.96 621.66 106.86 622.08 107.66C622.24 107.96 622.46 108 622.76 107.7C623.68 106.7 624.02 105.42 624.18 103.92H623.28C622.62 103.92 622.3 103.58 622.3 102.92C622.3 102.26 622.62 101.94 623.28 101.94H629.52C630.32 101.94 630.82 102.46 630.72 104.32C630.54 107.6 630.32 108.86 629.9 109.38C629.5 109.86 629.06 110.04 628.48 110.12C628.18 110.16 627.8 110.2 627.36 110.2C626.68 110.18 626.16 109.98 625.96 109.34C625.68 108.38 626.16 108.12 627.16 108.18C627.22 108.18 627.26 108.18 627.3 108.18C627.58 108.18 627.76 108.14 627.94 107.96C628.14 107.68 628.3 106.86 628.4 104.98C628.44 104.12 628.26 103.92 627.86 103.92H626.42C626.16 106.42 625.54 108.48 623.62 109.92C622.78 110.42 622.06 110.26 621.64 109.62C621.54 109.48 621.42 109.36 621.3 109.24L620.82 109.48C620.58 109.6 620.38 109.52 620.32 109.32C620.26 109.16 620.2 109.02 620.12 108.84L616.82 109.76Z" fill="#5A9DA3"/>
<path d="M641.42 104.9H635.42C634.62 104.9 634.22 104.48 634.22 103.68C634.22 102.88 634.62 102.48 635.42 102.48H650.8C651.6 102.48 652 102.88 652 103.68C652 104.48 651.6 104.9 650.8 104.9H643.98V108.08L644.22 107.78C644.32 107.66 644.46 107.62 644.58 107.68C646.34 108.58 648.64 109.86 650.24 110.96C650.98 111.52 650.88 112 650.3 112.72C649.7 113.48 649.24 113.72 648.48 113.1C647.26 112.16 645.54 111.08 643.98 110.18V118.46C643.98 119.32 643.56 119.74 642.7 119.74C641.84 119.74 641.42 119.32 641.42 118.46V104.9Z" fill="#5A9DA3"/>
<path d="M419.33 328.5C442.615 328.5 461.491 347.376 461.491 370.66C461.491 393.945 442.615 412.821 419.33 412.821H297.834L291.082 429.5L283.431 412.821H162.66C139.376 412.821 120.5 393.945 120.5 370.66C120.5 347.376 139.376 328.5 162.66 328.5H419.33Z" fill="white" fill-opacity="0.7"/>
<path d="M159.7 364.84C159.48 364.66 159.24 364.48 159 364.3C158.3 363.82 158.28 363.3 158.9 362.72C159.32 362.34 159.76 362.26 160.26 362.54C160.6 362.76 160.96 363.02 161.3 363.26C161.54 363.44 161.78 363.62 162 363.8C162.54 364.32 162.5 364.76 161.96 365.28C161.36 365.86 160.82 365.88 160.24 365.28C160.06 365.14 159.88 364.98 159.7 364.84ZM160.54 367.18C160.8 367.34 161.02 367.5 161.24 367.68C161.82 368.18 161.8 368.64 161.26 369.2C160.68 369.8 160.14 369.84 159.54 369.26C159.36 369.12 159.18 368.96 159 368.82C158.76 368.64 158.5 368.46 158.24 368.3C157.52 367.86 157.5 367.32 158.1 366.72C158.5 366.32 158.94 366.22 159.44 366.48C159.8 366.7 160.18 366.94 160.54 367.18ZM174.64 365.26C175.18 365.26 175.46 365.54 175.46 366.08C175.46 366.62 175.18 366.92 174.64 366.92H163.28C162.74 366.92 162.46 366.62 162.46 366.08C162.46 365.54 162.74 365.26 163.28 365.26H174.64ZM173.3 370.12C173.82 370.12 174.08 370.38 174.08 370.9C174.08 371.42 173.82 371.7 173.3 371.7H164.66C164.14 371.7 163.88 371.42 163.88 370.9C163.88 370.38 164.14 370.12 164.66 370.12H173.3ZM173.3 367.74C173.82 367.74 174.08 368 174.08 368.52C174.08 369.04 173.82 369.3 173.3 369.3H164.66C164.14 369.3 163.88 369.04 163.88 368.52C163.88 368 164.14 367.74 164.66 367.74H173.3ZM173.02 362.86C173.54 362.86 173.8 363.12 173.8 363.64C173.8 364.16 173.54 364.44 173.02 364.44H165.02C164.5 364.44 164.24 364.16 164.24 363.64C164.24 363.12 164.5 362.86 165.02 362.86H173.02ZM171.3 375.5C171.7 375.5 171.9 375.3 171.9 374.9V374.72C171.9 374.32 171.7 374.12 171.3 374.12H166.52C166.12 374.12 165.92 374.32 165.92 374.72V374.9C165.92 375.3 166.12 375.5 166.52 375.5H171.3ZM172.84 372.54C173.62 372.54 174.14 373.06 174.14 373.84V375.8C174.14 376.58 173.62 377.1 172.84 377.1H165.1C164.32 377.1 163.8 376.58 163.8 375.8V373.84C163.8 373.06 164.32 372.54 165.1 372.54H172.84ZM161.7 376.16C162.54 377.5 164.02 378.06 166.1 378.16C168.04 378.24 171.46 378.22 174.1 378.08C175.2 378 175.48 378.36 175.16 379.42C174.96 380.1 174.66 380.36 173.96 380.4C171.54 380.48 168.16 380.5 166.08 380.42C163.62 380.32 161.96 379.72 160.7 378.18C160.2 378.64 159.68 379.08 159.14 379.54C158.34 380.22 157.68 380.18 157.24 379.24C156.9 378.5 157.04 377.96 157.74 377.52C158.28 377.14 158.86 376.74 159.38 376.32V373.9C159.38 373.5 159.18 373.3 158.78 373.3H158.26C157.52 373.3 157.16 372.94 157.16 372.2C157.16 371.46 157.52 371.1 158.26 371.1H160.62C161.28 371.1 161.7 371.52 161.7 372.18V376.16Z" fill="#5A9DA3"/>
<path d="M194.38 377.2C195.16 377.2 195.54 377.58 195.54 378.36C195.54 379.14 195.16 379.52 194.38 379.52H181.98C181.2 379.52 180.68 379 180.68 378.22V369.14H178.98C178.22 369.14 177.84 368.74 177.84 367.98C177.84 367.22 178.22 366.84 178.98 366.84H180.68V363.84C180.68 363.02 181.08 362.62 181.9 362.62C182.72 362.62 183.12 363.02 183.12 363.84V366.84H185.82V363.38C185.82 362.58 186.22 362.18 187.02 362.18C187.82 362.18 188.22 362.58 188.22 363.38V366.84H190.88V363.58C190.88 362.78 191.28 362.38 192.08 362.38C192.88 362.38 193.28 362.78 193.28 363.58V366.84H195.08C195.84 366.84 196.22 367.22 196.22 367.98C196.22 368.74 195.84 369.14 195.08 369.14H193.28V373.24C193.28 374.02 192.76 374.54 191.98 374.54H187.12C186.34 374.54 185.82 374.02 185.82 373.24V369.14H183.12V376.6C183.12 377 183.32 377.2 183.72 377.2H194.38ZM188.22 371.7C188.22 372.1 188.42 372.3 188.82 372.3H190.28C190.68 372.3 190.88 372.1 190.88 371.7V369.14H188.22V371.7Z" fill="#5A9DA3"/>
<path d="M206.6 369.3V367.86H203.12V368.7C203.12 369.1 203.32 369.3 203.72 369.3H206.6ZM211.9 369.3C212.3 369.3 212.5 369.1 212.5 368.7V367.86H208.98V369.3H211.9ZM206.6 366.06V364.62H203.72C203.32 364.62 203.12 364.82 203.12 365.22V366.06H206.6ZM212.5 366.06V365.22C212.5 364.82 212.3 364.62 211.9 364.62H208.98V366.06H212.5ZM200.78 363.98C200.78 363.2 201.3 362.68 202.08 362.68H213.66C214.44 362.68 214.96 363.2 214.96 363.98V369.94C214.96 370.72 214.44 371.24 213.66 371.24H211.72C212.7 372.1 213.98 372.84 215.38 373.38C216.5 373.74 216.92 374.26 216.2 375.2C215.74 375.8 215.22 375.86 214.5 375.6C213.7 375.26 212.92 374.84 212.22 374.36V379.48C212.22 380.3 211.8 380.72 210.98 380.72C210.16 380.72 209.74 380.3 209.74 379.48V374.96C209.74 374.18 210.26 373.66 211.04 373.66H211.24C210.36 372.94 209.56 372.14 208.9 371.24H206.86C206.22 372.1 205.4 372.9 204.5 373.62H205.4C205.86 373.62 206.16 373.92 206.16 374.38V375C206.16 376.62 205.76 378.7 203.2 380.18C202.52 380.5 201.46 380.72 200.98 380.14C200.26 379.26 201.28 378.32 202.3 377.82C203.52 376.9 203.72 375.8 203.72 374.9V374.2C202.92 374.76 202.04 375.24 201.14 375.64C200.46 375.92 199.96 375.86 199.5 375.28C198.82 374.42 199.14 373.9 200.18 373.54C201.58 372.94 202.9 372.14 203.92 371.24H202.08C201.3 371.24 200.78 370.72 200.78 369.94V363.98Z" fill="#5A9DA3"/>
<path d="M221.6 364.16C222.06 363.72 222.5 363.28 222.86 362.82C223.28 362.24 223.78 362.14 224.44 362.42C225.28 362.76 225.44 363.26 224.88 363.98C224.4 364.58 223.84 365.16 223.28 365.72C222.66 366.3 222.04 366.86 221.42 367.34C220.72 367.82 220.24 367.76 219.82 367.02C219.4 366.3 219.54 365.8 220.24 365.32C220.7 364.96 221.18 364.56 221.6 364.16ZM234.22 366.64V365.64C234.22 365.24 234.02 365.04 233.62 365.04H229.78C229.38 365.04 229.18 365.24 229.18 365.64V366.64H234.22ZM233.62 370.32C234.02 370.32 234.22 370.12 234.22 369.72V368.66H229.18V370.32H233.62ZM226.76 364.24C226.76 363.46 227.28 362.94 228.06 362.94H235.32C236.1 362.94 236.62 363.46 236.62 364.24V371.1C236.62 371.88 236.1 372.4 235.32 372.4H232.94C233.16 373.22 233.46 374 233.82 374.7C234.32 374.32 234.86 373.88 235.32 373.46C235.8 372.98 236.22 373 236.76 373.42C237.36 373.9 237.38 374.38 236.8 374.88C236.18 375.42 235.48 375.92 234.86 376.34C235.34 376.94 235.9 377.46 236.56 377.9C237.58 378.42 237.9 379 237.22 379.9C236.72 380.58 236.2 380.58 235.46 380.18C232.98 378.58 231.6 375.88 230.78 372.4H229.18V377.64L231.28 377.32C232.04 377.2 232.44 377.54 232.48 378.3C232.52 378.96 232.2 379.36 231.54 379.48C229.82 379.8 228.08 380.06 226.56 380.32C225.84 380.44 225.52 380.14 225.34 379.44C225.12 378.64 225.44 378.18 226.26 378.06L226.76 378V364.24ZM222.04 372.26C221.84 372.46 221.64 372.66 221.44 372.86C220.66 373.5 220.12 373.46 219.64 372.58C219.22 371.8 219.34 371.28 220.04 370.74C221.3 369.72 222.56 368.44 223.5 367.1C223.88 366.52 224.38 366.38 225.02 366.64C225.78 366.96 225.94 367.44 225.5 368.14C225.14 368.66 224.76 369.2 224.34 369.72V379.64C224.34 380.4 223.96 380.78 223.2 380.78C222.44 380.78 222.04 380.4 222.04 379.64V372.26Z" fill="#5A9DA3"/>
<path d="M241.68 365.78C240.86 365.78 240.46 365.38 240.46 364.56C240.46 363.74 240.86 363.34 241.68 363.34H257.16C257.98 363.34 258.38 363.74 258.38 364.56C258.38 365.38 257.98 365.78 257.16 365.78H256.1V377.76C256.1 379.2 255.76 379.92 254.8 380.32C254.1 380.62 253.12 380.72 251.86 380.74C251.06 380.76 250.26 380.5 249.96 379.76C249.5 378.62 250.32 378.24 251.56 378.28C252.2 378.28 252.74 378.28 252.98 378.28C253.44 378.28 253.6 378.14 253.6 377.72V365.78H241.68ZM247.8 373.52C248.2 373.52 248.4 373.32 248.4 372.92V370.9C248.4 370.5 248.2 370.3 247.8 370.3H245.18C244.78 370.3 244.58 370.5 244.58 370.9V372.92C244.58 373.32 244.78 373.52 245.18 373.52H247.8ZM242.3 369.32C242.3 368.54 242.82 368.02 243.6 368.02H249.42C250.2 368.02 250.72 368.54 250.72 369.32V374.5C250.72 375.28 250.2 375.8 249.42 375.8H243.6C242.82 375.8 242.3 375.28 242.3 374.5V369.32Z" fill="#5A9DA3"/>
<path d="M263.76 370.94C263.96 370.7 264.16 370.44 264.34 370.16C264.64 369.6 265.1 369.46 265.68 369.72C266.26 369.98 266.42 370.4 266.14 370.98C265.96 371.32 265.74 371.66 265.5 371.98C265.24 372.34 264.92 372.7 264.56 373C264.12 373.34 263.66 373.36 263.24 373C262.58 372.46 262.6 371.94 263.3 371.42C263.46 371.28 263.62 371.1 263.76 370.94ZM264.56 368.48C264.16 368.48 263.96 368.68 263.96 369.08V369.22C263.96 369.96 263.58 370.34 262.84 370.34C262.1 370.34 261.7 369.96 261.7 369.22V367.88C261.7 367.14 262.18 366.66 262.92 366.66H265.14C264.9 366.14 264.56 365.54 264.2 365.04C264.14 364.96 264.16 364.9 264.24 364.86L264.3 364.84L263.58 364.86C263.02 364.88 262.66 364.66 262.52 364.12C262.32 363.4 262.68 363.1 263.44 363.08C267.82 362.96 272.62 362.62 275.66 362.08C276.12 362 276.34 362.14 276.68 362.48C277.4 363.2 277.3 363.66 276.3 363.84C275.94 363.9 275.58 363.96 275.2 364.02L276.16 364.34C276.68 364.5 276.8 364.88 276.48 365.34C276.14 365.82 275.82 366.26 275.5 366.66H277.42C278.2 366.66 278.72 367.18 278.72 367.96V369.32C278.72 370.1 278.2 370.62 277.42 370.62H276.86C277.08 370.86 277.3 371.08 277.5 371.32C277.92 371.84 277.82 372.26 277.28 372.66C276.68 373.12 276.24 373.16 275.8 372.54C275.38 372 274.84 371.44 274.26 370.92C273.68 370.42 273.66 369.88 274.28 369.44C274.72 369.14 275.12 369.12 275.54 369.46C275.8 369.68 276.08 369.92 276.36 370.16V369.08C276.36 368.68 276.16 368.48 275.76 368.48H270.96C271.2 368.62 271.42 368.74 271.64 368.88C272.12 369.22 272.1 369.58 271.72 370.02C271.32 370.46 270.98 370.6 270.52 370.22C270.04 369.88 269.42 369.52 268.84 369.22C268.5 369.08 268.44 368.8 268.7 368.52L268.74 368.48H264.56ZM266.98 365.6C267.08 365.76 267.16 365.92 267.22 366.08C267.28 366.26 267.2 366.46 267 366.54L266.74 366.66H269.4C269.32 366.36 269.2 366.02 269.04 365.66C268.88 365.32 268.68 364.96 268.48 364.66L266.46 364.76C266.66 365.04 266.84 365.32 266.98 365.6ZM273.9 365.42C274.16 364.96 274.38 364.5 274.56 364.1C273.96 364.18 273.32 364.24 272.7 364.32C272.06 364.38 271.4 364.44 270.74 364.5C270.94 364.82 271.1 365.16 271.24 365.48C271.4 365.92 271.18 366.38 270.68 366.58L270.46 366.66H273.18C273.42 366.3 273.66 365.86 273.9 365.42ZM273.8 380.2C272.5 379.92 271.3 379.56 270.18 379.1C268.18 379.92 265.88 380.42 263.48 380.72C262.86 380.8 262.4 380.66 262.06 380.12C261.5 379.2 261.9 378.82 262.96 378.72C264.66 378.54 266.28 378.24 267.74 377.84C267.1 377.42 266.5 376.94 265.96 376.42C265.34 376.76 264.7 377.08 264.08 377.36C263.54 377.58 263.12 377.52 262.7 377.12C261.96 376.4 262.26 375.92 263.24 375.56C264.98 374.84 266.58 373.88 267.68 372.76C266.82 372.5 266.58 371.9 266.58 370.76V370.46C266.58 369.72 266.94 369.36 267.68 369.36C268.42 369.36 268.78 369.72 268.78 370.46V370.74C268.78 371.2 268.9 371.26 269.58 371.26C269.88 371.26 271.24 371.26 271.64 371.26C271.66 371.26 271.68 371.26 271.7 371.26C272.14 370.64 272.64 370.42 273.36 370.66C273.94 370.86 274.02 371.48 273.86 372.08C273.52 372.72 272.92 372.92 271.92 372.92H270.16L270.22 372.94C269.98 373.26 269.7 373.56 269.4 373.84H274.36C275.3 373.84 275.64 374.4 275.1 375.52C274.46 376.58 273.66 377.22 272.8 377.78C274.18 378.12 275.74 378.38 277.38 378.54C278.6 378.62 279.08 379.06 278.42 380.08C278.06 380.64 277.6 380.78 276.94 380.72C275.84 380.6 274.8 380.42 273.8 380.2ZM268.84 376.26C269.26 376.52 269.72 376.74 270.2 376.94C271.08 376.52 271.84 376.04 272.48 375.48H267.7C268.06 375.76 268.44 376.02 268.84 376.26Z" fill="#5A9DA3"/>
<path d="M290.52 373.18C290.94 372.76 291.2 372.28 291.26 371.76L291.04 371.78C290.04 371.78 289.14 371.14 289.14 370C289.14 368.88 290.04 368.2 291.1 368.2C292.52 368.2 293.26 369.26 293.26 370.94C293.26 372.06 292.9 373.1 292.22 373.94C291.7 374.58 291 375.12 290.14 375.48C289.64 375.66 289.22 375.52 289.02 375.02C288.8 374.46 289.04 374.04 289.58 373.8C289.96 373.62 290.26 373.42 290.52 373.18Z" fill="#5A9DA3"/>
<path d="M310.62 370.28V367.02H307.2C306.92 367.68 306.6 368.32 306.26 368.88C305.84 369.52 305.4 369.64 304.72 369.3C303.88 368.86 303.78 368.36 304.3 367.58C305.02 366.34 305.58 364.82 305.96 363.42C306.14 362.62 306.62 362.38 307.42 362.54C308.24 362.7 308.52 363.18 308.3 363.98C308.22 364.22 308.14 364.48 308.06 364.72H310.62V363.2C310.62 362.4 311.02 362 311.82 362C312.62 362 313.02 362.4 313.02 363.2V364.72H317.96C318.72 364.72 319.1 365.1 319.1 365.86C319.1 366.62 318.72 367.02 317.96 367.02H313.02V370.28H319.52C320.3 370.28 320.68 370.66 320.68 371.44C320.68 372.22 320.3 372.6 319.52 372.6H315.46V377.46C315.46 378.12 315.56 378.22 316.18 378.22C316.46 378.22 317.56 378.22 317.92 378.22C318.16 378.22 318.34 378.16 318.44 377.92C318.56 376.82 319.02 375.62 320.04 376.08C320.66 376.36 320.72 377.46 320.64 378.12C320.3 379.94 319.6 380.48 318.14 380.48C317.68 380.48 316.28 380.48 315.84 380.48C313.6 380.48 313.06 379.74 313.06 377.48V372.6H310.18C309.82 375.74 308.98 378.42 305.66 380.22C304.9 380.56 304.02 380.68 303.54 380C302.9 379.08 303.76 378.3 304.78 377.84C306.92 376.52 307.42 374.68 307.68 372.6H304.14C303.36 372.6 302.98 372.22 302.98 371.44C302.98 370.66 303.36 370.28 304.14 370.28H310.62Z" fill="#5A9DA3"/>
<path d="M336.34 374.62C336.34 375.38 335.96 375.76 335.2 375.76C334.44 375.76 334.04 375.38 334.04 374.62V365.58C334.04 364.82 334.44 364.44 335.2 364.44C335.96 364.44 336.34 364.82 336.34 365.58V374.62ZM341.08 377.88C341.08 379.3 340.78 379.96 339.96 380.36C339.38 380.62 338.56 380.74 337.48 380.78C336.7 380.8 335.9 380.54 335.66 379.8C335.3 378.7 336.1 378.36 337.26 378.38C337.68 378.38 338 378.38 338.18 378.38C338.56 378.38 338.72 378.26 338.72 377.88V363.6C338.72 362.82 339.12 362.42 339.9 362.42C340.68 362.42 341.08 362.82 341.08 363.6V377.88ZM329.64 367.8C330.04 367.8 330.24 367.6 330.24 367.2V365.64C330.24 365.24 330.04 365.04 329.64 365.04H327.12C326.72 365.04 326.52 365.24 326.52 365.64V367.2C326.52 367.6 326.72 367.8 327.12 367.8H329.64ZM324.36 364.24C324.36 363.46 324.88 362.94 325.66 362.94H331.24C332.02 362.94 332.54 363.46 332.54 364.24V368.62C332.54 369.4 332.02 369.92 331.24 369.92H328.66L328.54 371.56H331.4C332.2 371.56 332.7 372.08 332.62 373.98C332.42 377.86 332.22 379.32 331.74 379.9C331.34 380.4 330.9 380.58 330.26 380.66C329.96 380.7 329.56 380.72 329.08 380.74C328.28 380.72 327.78 380.3 327.66 379.66C327.66 379.64 327.64 379.62 327.64 379.6C327.4 379 327.64 378.66 328.42 378.72C328.76 378.74 329.02 378.74 329.2 378.74C329.5 378.74 329.66 378.7 329.84 378.48C330.1 378.2 330.28 377.16 330.4 374.76C330.44 373.86 330.26 373.66 329.86 373.66H328.28C327.88 375.96 327.16 378.14 325.7 379.84C325.08 380.46 324.56 380.58 323.98 379.94C323.36 379.26 323.52 378.7 324.16 378.06C325.9 375.88 326.2 372.8 326.34 369.92H325.28C324.72 369.92 324.36 369.56 324.36 369V364.24Z" fill="#5A9DA3"/>
<path d="M349.9 379.98C349.44 379.58 349.3 378.9 349.3 377.92V376.66C349.3 375.88 349.68 375.5 350.46 375.5C351.24 375.5 351.62 375.88 351.62 376.66V377.9C351.62 378.44 351.76 378.5 352.6 378.5C353 378.5 354.6 378.5 355.1 378.5C355.28 378.5 355.44 378.48 355.54 378.42C355.8 377.42 356.3 376.74 357.26 377.12C357.9 377.38 357.98 378.02 357.88 378.7C357.74 379.26 357.54 379.66 357.28 379.94C356.86 380.4 356.26 380.56 355.32 380.56C354.8 380.56 352.8 380.56 352.34 380.56C351.12 380.56 350.36 380.4 349.9 379.98ZM361.22 376.94C361.54 377.32 361.86 377.7 362.12 378.06C362.56 378.72 362.4 379.16 361.7 379.56C360.94 380 360.42 379.94 359.96 379.18C359.74 378.86 359.48 378.5 359.2 378.16C358.88 377.78 358.56 377.38 358.22 377C357.58 376.36 357.7 375.84 358.48 375.4C359 375.12 359.44 375.14 359.88 375.54C360.34 375.98 360.8 376.46 361.22 376.94ZM345.72 377.26C345.94 376.94 346.14 376.62 346.32 376.28C346.62 375.56 347.12 375.36 347.84 375.62C348.54 375.88 348.74 376.36 348.48 377.04C348.28 377.5 348.06 377.94 347.8 378.36C347.5 378.84 347.14 379.26 346.76 379.66C346.26 380.06 345.78 380.08 345.26 379.7C344.46 379.12 344.44 378.52 345.2 377.9C345.38 377.7 345.56 377.48 345.72 377.26ZM345.3 371.48C344.7 371.48 344.4 371.16 344.4 370.56C344.4 369.96 344.7 369.66 345.3 369.66H357.48V369.14C357.48 368.86 357.36 368.74 357.08 368.74H347.24C347.02 368.74 346.9 368.62 346.9 368.4V368.34C346.84 368.38 346.8 368.42 346.74 368.46C346.08 368.92 345.56 368.96 345.02 368.38C344.34 367.64 344.66 367.02 345.5 366.46C347.04 365.32 348.2 363.98 349 362.68C349.34 362.06 349.96 362 350.64 362.14C351.4 362.3 351.78 362.74 351.38 363.4L351.36 363.44H356.22C357.12 363.44 357.52 363.98 357.14 365.1C356.82 365.78 356.48 366.28 356.12 366.74H358.54C359.32 366.74 359.84 367.26 359.84 368.04V369.66H361.5C362.1 369.66 362.4 369.96 362.4 370.56C362.4 371.16 362.1 371.48 361.5 371.48H359.84V373.16C359.84 373.94 359.32 374.46 358.54 374.46H354.22C354.48 374.62 354.72 374.78 354.96 374.94C355.54 375.4 355.54 375.86 355.02 376.4C354.48 376.96 354.06 377.08 353.48 376.56C352.84 376.08 352.04 375.6 351.28 375.18C350.98 375.02 350.92 374.76 351.18 374.5L351.22 374.46H347.56C346.9 374.46 346.56 374.12 346.56 373.46C346.56 372.8 346.9 372.46 347.56 372.46H356.88C357.28 372.46 357.48 372.26 357.48 371.86V371.48H345.3ZM350.02 365.32C349.62 365.8 349.18 366.28 348.72 366.74H353.32C353.7 366.32 354.06 365.8 354.38 365.32H350.02Z" fill="#5A9DA3"/>
<path d="M381.38 378.94C381.38 379.72 380.86 380.24 380.08 380.24H370.36C369.58 380.24 369.06 379.72 369.06 378.94V375.64C368.34 375.88 367.62 376.12 366.9 376.32C366.22 376.52 365.76 376.38 365.4 375.78C364.9 374.92 365.22 374.46 366.18 374.22C368.26 373.66 370.3 372.96 372.2 372.08H366.38C365.7 372.08 365.36 371.72 365.36 371.04C365.36 370.36 365.7 370.02 366.38 370.02H371.78V368.9H367.98C367.32 368.9 367 368.58 367 367.92C367 367.26 367.32 366.94 367.98 366.94H371.78V366.38H370.6C369.96 366.38 369.54 365.96 369.54 365.32V365.2H366.42C365.72 365.2 365.38 364.86 365.38 364.16C365.38 363.46 365.72 363.12 366.42 363.12H369.54V363.08C369.54 362.36 369.98 362 370.7 362C371.42 362 371.86 362.36 371.86 363.08V363.12H376.4V363.08C376.4 362.36 376.84 362 377.56 362C378.28 362 378.72 362.36 378.72 363.08V363.12H381.98C382.68 363.12 383.02 363.46 383.02 364.16C383.02 364.86 382.68 365.2 381.98 365.2H378.72V365.24C378.72 366 378.32 366.38 377.56 366.38C376.8 366.38 376.4 366 376.4 365.24V365.2H371.86V365.82H373.06C373.7 365.82 374.12 366.24 374.12 366.88V366.94H377.96C378.3 366.94 378.52 367.16 378.52 367.5V367.56C378.52 367.9 378.64 367.96 378.88 367.72C379.18 367.44 379.48 367.14 379.76 366.84C380.2 366.32 380.7 366.24 381.28 366.58C382 367 382.1 367.5 381.54 368.12C380.92 368.8 380.24 369.42 379.5 370.02H382.12C382.8 370.02 383.14 370.36 383.14 371.04C383.14 371.72 382.8 372.08 382.12 372.08H376.64C376.04 372.46 375.4 372.82 374.78 373.16H380.08C380.86 373.16 381.38 373.68 381.38 374.46V378.94ZM376.76 369.46C377.02 369.28 377.26 369.08 377.5 368.9H374.12V370.02H375.94C376.22 369.84 376.5 369.66 376.76 369.46ZM378.44 378.44C378.84 378.44 379.04 378.24 379.04 377.84V377.42H371.4V378C371.4 378.3 371.54 378.44 371.84 378.44H378.44ZM379.04 375.92V375.38C379.04 375.1 378.9 374.96 378.62 374.96H371.4V375.92H379.04Z" fill="#5A9DA3"/>
<path d="M393.5 370.78C393.62 369.96 393.66 369.16 393.66 368.36V367.62H389.84C389.54 368.2 389.22 368.74 388.92 369.24C388.42 369.94 387.92 370.08 387.16 369.66C386.26 369.16 386.16 368.66 386.8 367.84C387.6 366.62 388.28 365.1 388.78 363.52C389 362.72 389.54 362.32 390.36 362.5C391.22 362.68 391.54 363.22 391.28 364.06C391.16 364.44 391.04 364.8 390.9 365.18H393.66V363.24C393.66 362.42 394.08 362 394.9 362C395.72 362 396.14 362.42 396.14 363.24V365.18H401.02C401.84 365.18 402.24 365.58 402.24 366.4C402.24 367.22 401.84 367.62 401.02 367.62H396.14V368.38C396.14 369.16 396.12 369.98 396.02 370.78H402.72C403.54 370.78 403.94 371.18 403.94 372C403.94 372.82 403.54 373.22 402.72 373.22H397.02C398.12 375.36 399.9 376.94 402.42 377.9C403.64 378.26 404.32 378.88 403.58 379.92C403.12 380.58 402.4 380.62 401.62 380.38C398.52 379.26 396.48 377.32 395.08 374.54C394.1 376.8 392.2 378.82 388.7 380.22C387.96 380.48 387.04 380.54 386.58 379.9C385.92 378.98 386.78 378.24 387.84 377.86C390.58 376.64 392.06 375 392.82 373.22H387.28C386.46 373.22 386.06 372.82 386.06 372C386.06 371.18 386.46 370.78 387.28 370.78H393.5Z" fill="#5A9DA3"/>
<path d="M407.86 380.18C407.2 380.18 406.86 379.84 406.86 379.18C406.86 378.52 407.2 378.18 407.86 378.18H414.56V376.96H409.78C409.2 376.96 408.9 376.66 408.9 376.08C408.9 375.5 409.2 375.2 409.78 375.2H414.56V374.08C412.8 374.16 411 374.2 409.32 374.2C408.7 374.2 408.4 373.98 408.24 373.38C408.04 372.6 408.34 372.32 409.14 372.3C411.7 372.28 414.4 372.18 416.86 372.02C416.66 371.8 416.44 371.54 416.2 371.32C415.88 371.06 415.92 370.76 416.38 370.6C417.32 370.24 418.18 369.8 418.98 369.24C418.44 368.72 417.66 368.14 416.9 367.68L416.86 367.7C416.38 368.06 415.94 368.08 415.48 367.68C414.82 367.1 414.92 366.62 415.64 366.12C416.84 365.18 417.88 363.96 418.58 362.78C418.88 362.18 419.58 362.12 420.22 362.3C420.68 362.42 420.98 362.76 420.76 363.18L420.74 363.22H423.66C424.56 363.22 424.96 363.78 424.6 364.98C423.28 368.52 421.08 370.62 418.48 371.92C419.62 371.82 420.68 371.72 421.62 371.6C422.14 371.52 422.46 371.72 422.76 372.16C423.28 372.94 423.22 373.38 422.28 373.52C420.66 373.72 418.84 373.86 416.96 373.98V375.2H422.22C422.8 375.2 423.1 375.5 423.1 376.08C423.1 376.66 422.8 376.96 422.22 376.96H416.96V378.18H423.8C424.46 378.18 424.8 378.52 424.8 379.18C424.8 379.84 424.46 380.18 423.8 380.18H407.86ZM420.8 365.56C421.18 365.8 421.54 366.02 421.84 366.26C422.12 365.82 422.38 365.34 422.58 364.82H419.68L419.6 364.94C420 365.12 420.42 365.34 420.8 365.56ZM419.22 367.44C419.6 367.7 419.96 367.98 420.24 368.24C420.48 368 420.72 367.76 420.92 367.5C420.64 367.26 420.28 367 419.88 366.74C419.48 366.5 419.06 366.24 418.68 366.04L418.06 366.68C418.44 366.9 418.84 367.16 419.22 367.44ZM410.24 363.78V363.12C410.24 362.38 410.6 362.02 411.34 362.02C412.08 362.02 412.44 362.38 412.44 363.12V363.78H414.82C415.48 363.78 415.82 364.12 415.82 364.78C415.82 365.44 415.48 365.8 414.82 365.8H410.08V368.38C410.08 368.94 410.18 369.16 410.72 369.16C411.12 369.16 412.96 369.16 413.44 369.16C413.64 369.16 413.86 369.16 414.08 369.14C414.8 369.06 415.18 369.4 415.26 370.12C415.32 370.68 415.16 371.02 414.6 371.12C414.26 371.16 413.88 371.16 413.52 371.16C413 371.16 411.1 371.16 410.7 371.16C408.48 371.16 407.9 370.42 407.9 368.34V365.8H407.54C406.88 365.8 406.54 365.44 406.54 364.78C406.54 364.12 406.88 363.78 407.54 363.78H410.24Z" fill="#5A9DA3"/>
</svg>
