<svg width="1455" height="270" viewBox="0 0 1455 270" fill="none" xmlns="http://www.w3.org/2000/svg">
<path d="M1262.86 122.156C1262.86 73.768 1376.56 12.9076 1455 84.5749V270H0V2.10059C30.0278 -3.01851 94.4358 -1.99469 111.845 43.0533C172.07 2.10059 231.788 43.0533 243.428 84.5749C256.586 65.8048 294.036 56.1355 315.292 84.5749C329.969 46.9933 430.68 22.577 493.941 84.5749C530.379 28.2649 650.322 13.3298 703.967 84.5749C722.186 39.494 820.873 41.7693 841.116 98.2259C886.664 43.0533 995.979 66.9425 1020.95 129.656C1020.95 98.2259 1092.64 84.5749 1122.61 127.444C1146.01 82.1512 1236.88 73.768 1262.86 122.156Z" fill="#1E3648"/>
</svg>
