<svg width="87" height="88" viewBox="0 0 87 88" fill="none" xmlns="http://www.w3.org/2000/svg">
<path d="M83.6214 28.1375C85.0866 27.088 80.3469 30.7723 83.557 28.4013C82.9117 28.9283 82.2633 29.4488 81.6128 29.9665C81.4208 30.0527 81.2086 30.1544 81.0162 30.2404C81.8807 29.5519 82.7632 28.8437 83.6212 28.1373C83.6213 28.1373 83.6213 28.1374 83.6214 28.1375ZM84.4086 26.6881C83.7156 27.4604 81.2058 29.4968 84.02 27.4127C84.2001 27.2029 84.3864 26.9863 84.5774 26.7619C84.8099 26.5778 85.0316 26.4011 85.2651 26.1983C85.3304 26.1408 85.376 26.1009 85.4424 26.0373C85.4705 26.0104 85.5008 25.9807 85.5349 25.9436C85.5673 25.8976 85.5894 25.9204 85.6771 25.7224C85.6889 25.6849 85.7034 25.6335 85.6968 25.5534C85.7124 25.4805 85.5657 25.2386 85.4396 25.2165C85.3082 25.1749 85.2856 25.1931 85.2577 25.1913C85.2306 25.1934 85.2094 25.1972 85.191 25.2011C85.1098 25.2213 85.1049 25.2269 85.0704 25.2398C85.0101 25.265 84.9806 25.2798 84.9365 25.3021C84.8636 25.3391 84.7949 25.3775 84.724 25.4185C84.1718 25.7364 83.6303 26.0575 83.0881 26.3885C82.7306 26.6444 82.3791 26.9009 82.0256 27.163C81.5158 27.4063 81.0139 27.6512 80.5077 27.9062C80.9205 27.6284 81.3399 27.3519 81.7574 27.0823C82.6715 26.4118 83.5458 25.8137 84.5673 25.1647C84.6811 25.0952 84.7575 25.0395 84.9557 24.9491C84.9899 24.9352 85.001 24.9287 85.0731 24.9067C85.11 24.8963 85.1538 24.8848 85.2222 24.8779C85.2683 24.8759 85.2591 24.8688 85.3849 24.8801C85.4971 24.8927 85.712 24.9524 85.868 25.1563C85.9431 25.2523 85.9885 25.3748 86.0031 25.4611C86.0141 25.5208 86.0163 25.5742 86.0145 25.6201C86.0105 25.7121 85.993 25.7759 85.9769 25.8252C85.9431 25.9236 85.911 25.97 85.9022 25.9864C85.8743 26.0326 85.8504 26.0647 85.8271 26.0946C85.7602 26.179 85.707 26.2327 85.6599 26.2812C85.4647 26.4775 85.2922 26.6294 85.0971 26.801C84.7223 27.1283 84.3184 27.4637 83.8812 27.8207C84.0648 27.6982 84.2712 27.5559 84.4635 27.4235C83.3842 28.2654 82.3172 29.0568 81.2381 29.8529C82.135 29.1139 83.1391 28.2778 83.9526 27.5769C82.5331 28.5623 80.1706 30.4803 78.9324 31.4612C77.2414 32.8005 77.5834 32.4589 76.3366 33.4378C76.136 33.5949 76.13 33.6617 75.7404 33.9572C74.8596 34.625 73.6766 35.5103 72.716 36.213C71.4707 37.123 70.68 37.6675 71.9865 36.6071C72.211 36.4402 72.43 36.2768 72.6438 36.1166C75.7089 33.818 78.3644 31.7174 81.4011 29.397C80.4687 29.9425 82.1519 28.6249 84.4086 26.6881ZM23.3876 73.4264C24.3284 72.5917 26.3756 71.0159 27.7845 69.9806C27.7861 69.9794 27.7877 69.9782 27.7892 69.9769C28.0985 69.7493 28.8444 69.2801 27.8461 70.0502C26.2296 71.2989 25.3561 71.8139 24.585 72.5399C24.1883 72.8313 23.7826 73.1335 23.3876 73.4264ZM19.9501 76.2382C18.9619 77.0265 19.3389 76.5675 20.5568 75.5931C20.5568 75.593 20.5567 75.593 20.5567 75.5929C21.0689 75.1874 20.1364 76.0514 21.8945 74.5108C22.319 74.2489 22.7026 74.0148 23.1199 73.7603C22.6636 74.1266 22.2752 74.4416 21.7959 74.8325C22.0456 74.4944 20.9228 75.466 19.9501 76.2382ZM70.3149 37.9292C70.2144 38.1222 70.875 37.6287 72.0489 36.832C70.974 37.6328 69.9203 38.4154 68.8423 39.2152C69.3435 38.7791 69.8228 38.3592 70.3149 37.9292ZM75.3519 32.026C75.3503 32.0273 75.3488 32.0286 75.3472 32.0299C75.019 32.3207 74.6919 32.6144 74.3718 32.9052C74.1505 33.0487 73.932 33.1912 73.7115 33.3365C72.5588 34.3701 71.4223 35.4318 70.3092 36.5042C70.3747 36.2976 72.4345 34.4385 73.5531 33.3897C75.2999 31.9273 76.203 31.2967 76.3708 31.2698C76.0308 31.5188 75.6931 31.7691 75.3519 32.026ZM19.5597 34.8565C19.0803 34.8597 18.5346 34.885 18.0394 34.947C18.722 34.9158 19.3825 34.944 20.0584 35.014C21.857 35.0797 22.049 35.2175 24.3002 35.7384C31.2309 37.7399 29.4949 37.0608 35.423 39.796C30.5971 37.7424 32.3782 38.6368 29.4154 37.627C28.8396 37.3299 31.8005 38.2377 29.8545 37.478C26.4122 36.3451 22.9088 35.2351 19.0002 35.1499C19.1087 35.1649 19.2178 35.1812 19.3284 35.1988C19.9162 35.2107 20.6248 35.2728 21.2046 35.3477C20.5675 35.2926 19.8192 35.2563 19.183 35.2767C19.5963 35.2515 19.287 35.225 18.8811 35.2113C18.4519 35.1962 17.9868 35.2173 18.1286 35.1611C18.2494 35.103 19.2557 35.0279 19.8202 35.0376C18.3545 34.9194 16.7241 34.9642 15.3939 35.6123C16.09 35.224 16.8214 35.0223 17.6145 34.9003C18.2171 34.8315 18.9503 34.8242 19.548 34.8555C19.5519 34.8558 19.5558 34.8562 19.5597 34.8565ZM41.4923 23.9425C41.7497 23.127 42.1431 22.0302 42.5902 20.924C43.1476 19.533 43.8565 18.1571 44.4029 17.2849C43.7563 18.4761 43.1738 19.7 42.6599 20.9527C42.254 21.9424 41.8651 22.9395 41.4923 23.9425ZM76.5317 31.2327C76.3486 31.3586 76.1715 31.4809 75.9893 31.6079C76.7284 30.9664 77.4827 30.3319 78.2424 29.7137C78.4208 29.6376 78.6029 29.5597 78.7861 29.4813C78.0265 30.0522 77.272 30.6389 76.5317 31.2327ZM44.2556 57.2667C44.8246 56.8366 44.8745 56.8011 45.589 56.2746C45.5882 56.2752 45.5874 56.2757 45.5865 56.2763C45.8703 56.0665 48.2423 54.3278 48.0021 54.5536C46.8324 55.4283 45.5834 56.3621 44.3886 57.2578C44.3378 57.2656 44.3155 57.2523 44.2556 57.2667ZM58.0506 47.0039C58.0523 47.0028 58.0539 47.0016 58.0556 47.0005C58.4882 46.6858 58.9007 46.3933 59.3404 46.0691C57.7877 47.2955 57.4785 47.3959 56.0539 48.4921C54.6316 49.5871 53.7759 50.2956 52.4702 51.0908C52.9098 50.7367 53.3828 50.3464 53.8357 49.9783C55.9119 48.5037 56.4355 48.0478 58.0367 46.7873C58.041 46.8599 58.0457 46.9317 58.0506 47.0039ZM49.3129 46.7419C49.7764 46.9093 50.2219 47.2273 50.271 47.2547C50.2701 47.2543 50.2692 47.2539 50.2683 47.2535C54.0815 49.2484 49.755 47.0089 53.3241 48.976C52.7865 48.6995 52.2537 48.4285 51.7154 48.1554C50.9219 47.6843 50.0985 47.1964 49.3129 46.7419ZM25.1509 48.5054C25.1767 48.5422 25.2094 48.5826 25.2351 48.6194C23.0791 47.4766 22.485 47.2589 20.7173 46.2583C22.1967 47.0008 23.6814 47.7529 25.1511 48.5052C25.151 48.5052 25.151 48.5053 25.1509 48.5054ZM34.3272 64.5729C36.4613 62.9001 38.0487 61.6784 40.1669 60.1599C40.1686 60.1587 40.1702 60.1576 40.1719 60.1564C40.294 60.0692 39.7403 60.5401 39.9032 60.4309C40.3271 60.1034 40.7679 59.7592 41.1961 59.4274C41.2754 59.4107 41.3519 59.3961 41.431 59.3793C40.2035 60.2904 38.9728 61.2061 37.7489 62.1195C37.9404 61.9998 38.1366 61.8764 38.329 61.7562C37.298 62.5482 36.2732 63.3373 35.2381 64.1368C35.5631 63.8191 35.8947 63.4968 36.2146 63.1834C35.584 63.6467 34.9525 64.1121 34.3272 64.5729ZM13.3307 38.7578C12.9315 38.6067 13.7016 38.8134 13.0646 38.5897C12.4082 38.3597 11.2567 38.0416 11.5438 38.0658C12.3711 38.3167 13.321 38.609 14.1718 38.8739C11.4039 37.8586 8.53258 37.0958 8.55104 36.9562C11.2384 37.8077 13.4736 38.5039 16.0922 39.3178C15.9636 39.3913 13.2979 38.6298 14.9306 39.2684C14.389 39.0942 13.8345 38.9178 13.3364 38.7593C13.3345 38.7588 13.3326 38.7583 13.3307 38.7578ZM48.6894 59.5168C47.4344 60.6187 44.6866 63.2386 43.3024 64.7576C43.2133 64.8522 43.0644 64.997 42.8939 65.1613C42.3845 65.6548 41.6695 66.3066 41.6583 66.2884C41.6213 66.1898 42.9887 64.5702 41.4684 66.2571C41.8538 65.8054 42.229 65.3628 42.6078 64.9168C42.7142 64.7916 42.8222 64.6663 42.9316 64.5413C42.7966 64.6011 42.6626 64.6612 42.5317 64.7188C42.51 64.7446 42.4884 64.7704 42.4668 64.7962C41.8962 65.4778 41.325 66.1602 40.7546 66.8418C40.7096 66.8629 40.6647 66.8839 40.6197 66.9051C42.6425 64.5371 41.5926 65.6585 42.3345 64.6833C42.3826 64.62 42.4385 64.5479 42.5043 64.4653C42.4421 64.5336 42.3804 64.6019 42.3192 64.6702C41.3222 65.7831 40.3195 66.9028 39.3267 68.0108C39.9222 67.3208 40.6234 66.5053 41.1498 65.8976C41.1399 65.7476 39.9129 67.2221 39.6846 67.4594C38.9802 68.1912 40.511 66.3833 42.1031 64.4855C43.4185 62.9091 44.9421 61.4221 45.1439 61.1291C44.0704 62.1399 42.9764 63.236 41.9791 64.3796C41.9546 64.4077 41.93 64.4358 41.9055 64.4638C41.9285 64.4345 41.9515 64.4051 41.9746 64.3757C42.2267 64.054 42.4873 63.7336 42.7494 63.4209C45.0164 61.0868 47.7349 58.7434 50.5819 56.3235C50.8106 56.1165 51.0426 55.9059 51.2743 55.6948C51.5386 55.4401 51.802 55.1849 52.0626 54.9315C51.9519 54.9713 51.8455 55.0072 51.7347 55.047C52.1352 54.6597 52.5341 54.2712 52.9311 53.882C51.8578 55.123 53.4984 53.5676 55.515 51.7161C54.5174 52.7764 53.2023 53.9975 53.3617 53.9852C56.9077 50.4706 61.0729 46.3626 64.4498 42.8729C65.2915 42.0077 65.1885 41.9104 67.2276 39.9388C67.1687 40.0162 67.1751 40.0464 67.1438 40.1035C70.6273 36.6551 72.7821 34.5816 76.7839 31.4165C76.5244 31.5639 76.269 31.7093 76.0106 31.8592C75.1859 32.5633 74.3723 33.2819 73.5743 34.0064C72.9715 34.436 73.7514 33.6737 71.3476 35.837C69.3953 37.6284 70.5821 36.588 70.0686 37.0935C69.3766 37.7815 68.7124 38.3247 67.9813 39.076C67.4173 39.6586 68.0887 39.093 66.5638 40.5556C67.1135 39.9012 67.6764 39.2356 68.2364 38.5831C68.6229 38.2396 69.0079 37.9007 69.3966 37.5614C69.0321 37.9347 68.675 38.304 68.3133 38.6809C69.6135 37.3827 70.8586 36.1707 72.2505 34.8733C71.8692 35.375 73.3041 34.0321 74.1094 33.3302C75.3627 32.2367 74.3287 33.2206 75.1542 32.5086C75.9832 31.8016 76.8317 30.9785 78.4119 29.7959C77.6051 30.4809 78.7763 29.6458 78.5858 29.8544C78.3917 30.0595 76.7559 31.3449 78.3694 30.1639C81.4215 27.8248 77.9584 30.1655 80.0357 28.5965C82.5594 26.7439 83.3787 26.6372 82.6358 27.1963C82.0502 27.6377 79.9939 29.079 79.4403 29.5688C83.1287 26.9957 83.113 26.9055 83.7305 26.4371C84.3025 26.0298 84.6499 25.8124 84.8862 25.6811C84.9792 25.6293 85.0507 25.5956 85.1203 25.5685C85.1551 25.555 85.1865 25.5446 85.2208 25.5361C85.2344 25.5334 85.2559 25.5279 85.2775 25.5272C85.2887 25.5288 85.2956 25.5213 85.3314 25.5398C85.3682 25.5687 85.3563 25.598 85.3538 25.6084C85.2649 25.737 85.1834 25.7576 85.0623 25.8552C84.8123 26.0409 84.4265 26.3576 83.49 27.1782C83.4931 27.091 83.499 27.01 83.5085 26.9209C83.0791 27.285 82.7799 27.5448 82.2521 27.9747C83.9244 26.8068 82.6225 27.8416 81.9495 28.3697C80.8873 29.204 82.5655 27.9658 82.2891 28.2029C81.5656 28.8303 80.3533 29.7446 81.1216 29.2194C80.777 29.4543 80.404 29.71 80.0425 29.956C78.8275 30.9381 76.0261 33.4142 78.8078 31.2228C78.5965 31.5132 77.6783 32.1526 76.9529 32.6836C76.2428 33.2028 76.2842 33.2529 75.6585 33.7109C73.1556 35.539 74.6936 34.2398 75.047 33.8641C72.5448 35.807 73.901 34.8281 72.4975 35.9215C72.0958 36.2345 71.4145 36.7567 70.3286 37.5794C69.9138 37.9781 72.149 36.4022 70.3479 37.7993C69.9342 37.9543 68.5483 38.8793 65.8951 40.8026C65.6529 41.0183 65.425 41.2235 65.1866 41.4361C63.6786 42.4159 64.3504 41.769 61.7827 43.8537C63.0474 42.5898 62.1688 43.4501 59.7345 45.1277C59.2373 45.4708 60.3242 44.5957 59.6319 45.0762C59.3133 45.2977 58.6098 45.8713 57.8394 46.4049C57.4687 46.6612 55.7094 47.8446 54.5596 48.7595C55.5007 48.2161 53.322 49.9708 55.3067 48.6237C51.7443 51.2425 49.3056 53.137 53.1716 50.0423C52.249 50.6818 51.3256 51.3226 50.4055 51.9615C49.7973 52.4524 49.1822 52.9486 48.57 53.4429C48.4133 53.4312 48.4902 53.336 46.036 55.1942C47.0904 54.3748 48.1426 53.5578 49.2019 52.7365C49.2256 52.6927 49.3625 52.5635 49.3144 52.5741C48.0213 53.5874 44.3265 56.3727 43.4462 57.0687C42.5653 57.7639 44.3033 56.4697 44.0612 56.6848C42.0413 58.4749 42.1129 58.2186 40.5956 59.4073C39.7028 60.1071 41.8788 58.5001 41.4001 58.8722C39.6258 60.2506 38.7216 60.7861 37.1338 61.985C37.7419 61.6082 38.3355 61.2443 38.9308 60.8791C37.2646 62.1318 35.4002 63.5437 33.8709 64.7356C33.2682 65.2053 33.7573 64.8947 33.6601 64.9729C33.1813 65.3581 31.2037 66.9049 30.9895 67.0706C29.4037 68.2897 29.3143 68.2719 27.7718 69.4623C28.3834 68.9804 28.9307 68.5508 29.5278 68.0834C29.736 67.7828 29.9333 67.491 30.1356 67.1952C28.6134 68.3554 27.1146 69.5056 25.5926 70.6868C26.7118 69.8576 27.8598 69.013 28.976 68.1982C27.3005 69.6049 25.6324 71.0175 23.974 72.4446C23.6625 72.6678 23.3568 72.8871 23.057 73.1025C22.4247 73.5594 21.8332 73.9886 21.211 74.4485C18.8357 76.4195 19.4741 76.1945 18.2203 77.0016C17.549 77.5994 16.8586 78.2263 16.2064 78.836C16.2842 78.7283 16.3573 78.6252 16.4352 78.5181C15.6262 79.2646 14.8357 80.0172 14.0617 80.7935C14.9584 80.0603 15.855 79.3768 16.7692 78.69C15.1856 80.1414 15.1121 80.124 14.8629 80.3243C14.2059 80.8606 13.0548 82.1152 12.568 82.575C12.3982 82.716 13.8143 81.1781 13.2656 81.6501C13.1729 81.7486 10.9396 83.558 10.1045 85.219C10.1564 85.2102 10.2661 85.1163 10.3449 85.0736C10.1541 85.4154 9.98361 85.7634 9.98427 86.0569C9.9719 86.3687 10.3251 86.4155 10.5745 86.3892C11.6425 86.3003 12.1348 86.3437 11.9276 86.4152C13.2055 86.1892 15.0814 85.9163 15.3347 85.8111C15.9874 85.7154 16.6427 85.6191 17.2957 85.5225C16.6361 85.7858 19.3668 85.3572 19.5251 85.1892C18.3998 85.3515 17.271 85.5121 16.1436 85.6715C16.9703 85.3733 13.5343 85.7748 20.6764 84.8886C22.0491 84.7768 18.2544 85.2344 19.3737 85.1375C21.3057 84.8929 23.1119 84.5882 24.9504 84.3673C27.2325 84.087 24.454 84.6166 29.7361 83.6566C17.9989 85.2551 31.3331 83.3233 36.762 82.1535C38.2918 82.0477 43.0186 81.4921 49.1018 79.2394C48.4633 79.4312 46.523 80.1088 45.3897 80.3888C44.2625 80.6733 45.4735 80.3067 44.05 80.6487C42.637 80.9925 39.592 81.6221 38.1355 81.8576C39.3698 81.606 45.3444 80.1006 41.4026 81.1387C44.3743 80.4941 45.8166 80.3035 49.3568 78.9807C50.1531 78.5153 50.3255 78.5407 51.9602 77.3901C52.2952 77.119 52.6854 76.771 53.1027 76.2951C52.4309 77.1195 52.8146 76.8252 53.3018 76.3747C53.7872 75.9269 54.2664 75.2388 54.0829 75.6806C53.3048 76.7732 52.9965 76.8887 52.8672 76.9706C52.7201 77.0353 52.6869 77.024 52.0861 77.4725C52.0789 77.4777 52.0661 77.4875 52.0482 77.5015C51.7936 77.7921 49.8681 78.8179 49.3568 78.9807C51.6721 78.1605 52.3715 77.5623 51.1408 78.5316C51.5862 78.2851 51.975 78.031 52.2764 77.7906C53.0529 77.1667 53.4332 76.6835 53.4706 76.5635C53.7393 76.3044 53.9947 76.0238 54.2249 75.7279C54.542 75.2281 54.7844 74.7407 54.9578 74.121C54.7381 74.5875 54.8798 74.2556 54.9864 73.6411C55.0589 73.1999 55.077 72.6119 55.0109 72.1207C54.9269 71.5399 54.8913 71.6487 54.841 71.4999C54.7694 71.3597 54.7632 70.9338 54.2072 69.4639C54.5642 70.4483 54.7839 71.3958 54.8072 72.4034C54.6712 70.382 53.7517 68.501 52.6388 66.8486C53.4533 68.0286 54.3995 70.9088 54.2077 70.8612C54.1279 69.9465 52.6042 67.2075 52.3587 66.9655C51.6033 65.8808 52.0551 66.4425 52.0016 66.3578C50.808 64.6483 49.5415 63.4538 49.0322 62.8408C48.5844 62.4355 48.1807 62.0822 47.7693 61.7315C47.11 61.1742 46.4281 60.6636 45.5762 60.0742C44.8118 59.5519 44.9263 59.7121 44.4759 59.3975C41.4933 57.4039 44.4756 59.0913 38.408 55.6706C39.1229 56.1393 39.8144 56.6013 40.5032 57.0682C39.8316 56.6852 39.1461 56.3005 38.4556 55.9178C37.9984 55.6418 37.5688 55.3838 37.1056 55.1084C37.1647 55.0285 37.2259 54.9496 37.285 54.8697C36.7867 54.5775 36.2942 54.291 35.784 53.9963C36.6619 54.4815 37.5286 54.9664 38.3786 55.4491C38.4638 55.4785 38.5496 55.5083 38.6373 55.5393C37.3893 54.7809 36.1083 54.0204 34.8481 53.2831C34.8064 53.2991 34.7648 53.3154 34.7231 53.3314C31.838 51.6699 31.7975 51.6184 28.9744 50.1989C26.8397 49.0486 25.0108 48.2467 23.7484 47.6524C23.3064 47.3986 22.8732 47.15 22.4317 46.898C22.1328 46.7743 21.8294 46.6483 21.5273 46.5235C20.9787 46.1935 20.4273 45.8631 19.8718 45.5318C19.507 45.4458 19.3464 45.3909 21.5373 46.5636C20.7355 46.2695 16.8499 44.2127 15.2694 43.3717C14.0752 42.7336 15.4575 43.3301 15.3111 43.2432C14.8258 42.9523 12.8142 41.9731 12.3958 41.7562C10.6324 40.8396 9.38953 40.2246 7.78397 39.4045C7.47584 39.2468 6.628 38.761 6.55378 38.7224C5.97492 38.4245 4.56544 37.6984 4.40088 37.6169C3.00178 36.9213 2.09297 36.4792 1.49122 36.1931C1.26744 36.0861 1.13375 36.0177 1.01767 35.9553C0.85274 35.8626 0.800075 35.8334 0.701561 35.7564C0.6491 35.7117 0.613993 35.6753 0.592403 35.618C0.545992 35.5472 0.64761 35.3927 0.699249 35.3893C0.812957 35.3479 0.78827 35.3589 0.809952 35.3484C0.826455 35.3376 0.806033 35.3225 0.724393 35.3302C0.66768 35.3342 0.512348 35.4071 0.511777 35.5679C0.51684 35.6813 0.538941 35.6976 0.550117 35.731C0.576844 35.7711 0.557296 35.8275 0.470322 35.6294C0.421555 35.5488 0.533659 35.3006 0.652011 35.2776C0.792532 35.2286 0.764858 35.2441 0.831637 35.2332C0.882496 35.2279 0.942431 35.2262 1.02135 35.2295C1.0797 35.2317 1.12719 35.2345 1.1979 35.2413C1.76164 35.2988 2.73871 35.5069 4.5136 35.9951C4.25351 35.8891 4.02692 35.7937 3.7974 35.6984C4.43871 35.8646 5.05646 36.0332 5.72439 36.2207C6.49665 36.4719 5.5114 36.2387 7.1309 36.6678C7.01972 36.6786 6.90884 36.6897 6.78052 36.6955C7.45216 36.8682 8.18056 37.0625 8.85299 37.2431C9.92525 37.7113 13.9568 39.0249 13.5955 39.0921C13.5046 39.121 10.6136 38.2687 12.0972 38.8027C13.3249 39.2052 12.5113 38.8742 13.021 39.0327C16.624 40.1642 16.4038 40.2057 17.8514 40.6549C18.0944 40.6917 18.3518 40.7326 18.6045 40.7726C19.1749 40.9756 19.6952 41.1628 20.2543 41.364C20.3921 41.381 20.536 41.4 20.675 41.4174C20.1493 41.2379 19.5704 41.0415 19.1026 40.8831C19.7775 40.9852 25.9273 43.0385 23.5686 42.3283C22.5822 42.0287 20.8843 41.4362 21.9245 41.9245C23.5658 42.4631 25.4407 43.0899 27.143 43.6657C27.1873 43.7103 27.2279 43.7537 27.2723 43.7984C29.6096 44.5993 27.5222 43.7501 27.5481 43.697C28.0791 43.8811 28.6267 44.0721 29.144 44.2528C29.3571 44.3563 29.5596 44.4575 29.7855 44.5648C29.8172 44.5314 30.1618 44.547 31.7148 45.1397C32.7136 45.5221 31.0856 45.0529 33.0212 45.7307C32.8959 45.6158 32.2344 45.2907 34.3856 46.0432C34.5732 46.1844 34.8449 46.3501 34.9851 46.4781C37.6901 47.3892 38.8435 47.9247 42.0033 49.0172C43.9873 49.703 46.7569 50.5647 47.9471 51.3054C49.383 51.8609 48.9487 51.6243 49.3802 51.7734C51.4294 52.483 52.866 53.178 53.2422 53.3322C53.6486 53.499 54.0187 53.6491 54.3625 53.7875C56.0213 54.4545 57.0422 54.8276 58.6365 55.4962C58.5472 55.4087 58.5057 55.3424 58.4402 55.2655C56.9377 54.751 56.0638 54.4206 54.3759 53.7532C54.0287 53.6158 53.6484 53.465 53.2235 53.2969C53.6088 53.4419 53.9955 53.5876 54.3833 53.7341C54.8475 53.9095 55.3058 54.0823 55.7579 54.2524C55.6371 54.1623 55.517 54.0724 55.4002 53.9841C55.0601 53.8591 54.7353 53.739 54.4263 53.6242C48.3531 51.3832 49.4947 51.6277 54.48 53.4867C54.9611 53.6672 55.4663 53.8578 56.0042 54.0621C56.5474 54.3531 57.0799 54.6391 57.6197 54.9279C61.4118 56.2712 63.1303 57.0363 67.3901 58.6586C67.8922 58.8499 69.756 59.4968 70.5468 59.7842C70.5333 59.7789 70.5199 59.7737 70.5064 59.7684C71.0351 59.8879 70.3623 59.6064 70.3125 59.5211C70.7425 59.671 71.1716 59.82 71.6127 59.9726C72.5449 60.3618 72.2142 60.2883 74.1028 60.9505C73.8672 60.8163 73.6262 60.6797 73.3879 60.5437C74.1535 60.8175 74.8193 61.0601 75.4505 61.2855C75.7674 61.3985 76.0766 61.5077 76.3843 61.6113C76.5341 61.6616 76.686 61.712 76.8432 61.7581C76.8777 61.7681 76.9134 61.7782 76.9489 61.7867C76.9618 61.7901 76.9808 61.7928 76.9672 61.7915C76.9583 61.7918 76.9461 61.7872 76.8941 61.798C76.8681 61.8051 76.8256 61.8145 76.7691 61.8645C76.7126 61.9 76.6552 62.0637 76.6843 62.1362C76.7933 62.3739 76.7886 62.2741 76.7873 62.2948C76.7581 62.2766 76.6793 62.2386 76.5949 62.2005C76.4242 62.1233 76.1772 61.9975 75.919 61.8597C75.7254 61.7567 75.5013 61.6352 75.2395 61.4912C75.4091 61.5763 75.5668 61.6537 75.7133 61.7236C75.859 61.7928 75.9904 61.854 76.1876 61.9462C72.2916 59.7145 75.5256 61.2222 72.5164 59.6284C72.3556 59.5049 72.1954 59.3814 72.0265 59.2528C73.214 59.9482 74.4385 60.6708 75.6514 61.3413C75.6931 61.325 75.7364 61.3096 75.7725 61.2901C74.477 60.5809 73.1348 59.7917 71.8851 59.0644C72.3496 59.3264 72.8145 59.5883 73.3112 59.8673C73.5511 60.0018 73.7814 60.1302 74.0015 60.2521C74.2348 60.3818 74.5103 60.5353 74.7414 60.6618C73.253 59.7822 71.7586 58.8693 70.2983 57.9829C71.7679 59.0044 69.7718 57.8357 70.0787 58.1646C67.5008 56.5123 65.5017 55.1538 61.3568 52.8523C60.5399 52.4016 60.9071 52.7095 58.6701 51.3066C59.165 51.7477 56.2149 50.1492 56.5282 50.4813C57.324 50.9224 58.1889 51.409 58.9664 51.8447C58.0999 51.297 58.0189 51.1036 59.3831 51.8404C61.14 52.7892 63.5929 54.3239 63.5677 54.1466C64.2552 54.5562 64.8544 54.9125 65.5424 55.3242C65.2509 55.1931 64.9449 55.0539 64.6684 54.9321C66.6129 56.0111 67.7798 56.7258 68.6295 57.3324C66.3394 55.9959 64.1439 54.7236 61.8513 53.4161C62.1756 53.6113 62.5042 53.8094 62.8436 54.014C61.0755 53.0911 62.8323 54.2029 59.6049 52.3644C59.6447 52.3398 59.6807 52.3129 59.7206 52.2881C58.5241 51.7226 55.3083 49.909 56.2701 50.5971C55.3252 50.0209 55.1355 49.8876 54.5488 49.6388C52.0522 48.1395 50.4402 47.1408 51.4281 47.5083C50.4655 47.0125 49.4899 46.5159 48.5251 46.032C49.0605 46.3601 49.5997 46.6925 50.1344 47.0248C48.465 46.1253 46.788 45.2414 45.1062 44.3803C45.0015 44.1877 48.3553 46.0223 47.4255 45.4208C47.2398 45.2993 46.3172 44.8706 46.0839 44.7375C43.6311 43.333 47.5303 45.4423 46.8345 44.9751C43.1016 43.0316 46.1972 44.3835 40.9357 41.9522C40.814 41.8558 40.6809 41.7535 40.566 41.6611C38.7344 40.7883 38.8743 40.9399 37.2825 40.2298C36.2825 39.7871 35.1153 39.1281 33.9581 38.7442C33.753 38.6866 35.5549 39.5762 31.6437 37.9952C28.6127 36.8368 29.8851 37.1981 28.2361 36.5778C26.5575 35.9233 22.6463 35.072 21.4327 34.7719C22.3504 34.9294 23.5084 35.1837 24.5123 35.4614C24.9433 35.5342 25.3442 35.6067 25.7424 35.6831C23.4308 35.0637 21.089 34.5753 19.4332 34.6021C17.8345 34.4545 16.142 34.6962 15.0839 35.3402C14.0645 35.956 13.782 36.6217 14.1366 36.284C14.4902 35.9095 14.4791 35.9258 14.4877 35.8937C14.5029 35.8764 14.5488 35.7711 15.17 35.4389C15.3151 35.3989 15.4696 35.3622 15.6192 35.3352C13.3167 36.3313 13.1573 38.4738 13.4089 37.2678C13.2327 37.6326 13.1241 37.9639 13.0372 38.3337C13.0959 38.4166 13.1578 38.4905 13.2193 38.5703C13.1867 38.7618 13.1622 38.962 13.1462 39.1709C13.128 39.4141 13.1049 39.6713 13.0772 39.941C13.0028 40.4204 12.9131 40.9391 12.82 41.4356C12.7893 40.7465 13.0124 39.5881 12.3 43.3881C12.3385 43.4066 12.3759 43.4304 12.4144 43.449C11.7639 46.6201 11.6487 46.6839 10.7669 50.6446C11.3173 47.5878 11.8908 45.961 11.6098 45.9148C11.7841 45.1486 11.9531 44.3785 12.1107 43.6214C12.0916 43.4944 12.0718 43.3698 12.0508 43.251C11.3556 47.3735 9.99724 54.2302 9.12827 56.9009C9.06633 57.2381 9.00193 57.5712 8.94001 57.911C8.15195 60.5485 8.08573 61.761 7.216 64.4177C7.12301 64.6905 7.07136 64.0526 6.09804 67.5506C6.15153 67.4717 6.21294 67.4402 6.26936 67.3797C6.03855 68.1297 5.80413 68.8803 5.57011 69.622C5.5578 69.7644 5.54266 69.9163 5.52998 70.0601C5.91408 68.776 6.29071 67.4914 6.66133 66.2018C6.37122 67.2781 6.07435 68.3606 5.77474 69.4338C6.22066 68.0486 6.39754 67.4174 6.2287 68.2795C5.88619 69.4981 5.53924 70.7101 5.18399 71.9244C5.16482 72.0546 5.1461 72.1837 5.12689 72.3135C5.35442 71.7434 5.58158 71.1642 5.80658 70.5939C4.84262 73.7355 3.99365 76.4773 3.11057 78.8442C2.95771 79.2474 3.36837 77.783 2.5091 80.5875C2.4584 80.6184 2.40393 80.6831 2.35424 80.7199C2.15546 81.378 1.96363 81.9858 1.79692 82.4979C1.64133 83.0369 1.39049 83.546 1.55542 84.0484C1.68327 84.3055 2.00999 84.2763 2.236 84.2312C2.4741 84.1819 2.70581 84.096 2.93665 84.0004C3.8531 83.6078 4.82027 83.0465 6.08198 82.2597C4.01544 83.4967 5.8525 82.3908 6.35128 82.0049C6.69105 81.7504 5.30757 82.6628 5.44491 82.5358C5.5992 82.4129 7.31274 81.1385 5.78053 82.137C4.66016 82.9475 3.7382 83.537 2.83409 83.9266C2.62197 84.0153 2.37343 84.1043 2.15223 84.1391C1.92678 84.1774 1.68898 84.1495 1.64118 83.9543C1.55622 83.5434 1.77865 83.0422 1.94837 82.5507C2.39516 81.3281 2.9024 79.8712 3.53089 77.7669C3.28968 78.6198 3.03947 79.4849 2.78677 80.3378C2.94185 79.9352 3.07097 79.6015 3.23346 79.1722C2.17746 82.2264 2.70118 80.7294 2.30557 82.0082C2.2482 82.1908 2.18361 82.393 2.11377 82.6083C2.01136 82.9294 1.88676 83.2936 1.84613 83.6277C1.81931 83.7934 1.87237 83.9356 1.86731 83.9004C1.85303 83.9065 2.02688 83.9274 2.19558 83.879C2.89921 83.6864 3.63731 83.2395 4.21705 82.902C4.66211 82.6312 4.21583 82.9707 5.18959 82.369C5.84713 81.9682 7.57301 80.6928 8.01258 80.4868C8.31254 80.3434 5.61073 82.4562 9.47553 79.7124C10.2224 79.2448 8.38531 80.5462 8.33483 80.585C8.05138 80.8746 10.4439 79.2288 11.4944 78.3745C11.5864 78.3009 10.6882 78.9002 11.6059 78.1939C11.8911 77.9736 12.169 77.7602 12.4399 77.5534C14.134 76.2581 15.2611 75.4627 16.5309 74.5761C16.6222 74.3835 18.3876 72.8787 20.6706 71.1344C20.7689 71.0222 20.8619 70.9137 20.9608 70.8006C20.6157 71.09 20.2831 71.3688 19.9361 71.6587C19.5368 71.9487 19.1227 72.2557 18.7405 72.5271C21.0078 70.7297 21.2447 70.3691 22.2998 69.4771C25.924 66.4013 23.8789 68.4672 23.2511 69.0412C22.754 69.4024 22.2595 69.7571 21.7686 70.1103C21.8424 70.0952 21.9172 70.0796 21.9868 70.068C27.5667 65.6592 22.9787 69.5675 25.8397 67.3799C26.466 66.6701 28.5282 65.0094 31.2243 62.9756C31.5138 62.7416 31.8054 62.5066 32.096 62.2711C32.1292 62.2132 32.1053 62.185 32.1746 62.1087C35.3221 59.5329 36.0417 59.2712 36.3569 59.0477C37.7515 58.053 38.6903 57.0944 39.0794 56.7749C40.7206 55.4267 41.2416 55.0848 42.7823 53.781C44.4447 52.3721 43.2626 53.2802 43.7446 52.8243C44.1275 52.4622 45.4522 51.359 45.9689 50.8818C45.7716 51.0849 45.5517 51.3059 45.3551 51.5084C47.12 50.1012 48.5539 48.9618 50.5266 47.3223C52.5932 45.2996 54.717 43.9882 53.7558 44.4032C51.898 45.9484 50.8224 46.8035 49.7881 47.5682C50.9944 46.5457 52.2213 45.5013 53.4172 44.4762C53.7981 44.1977 54.0724 44.0081 54.5103 43.6809C55.379 42.8517 57.4699 41.1018 58.2899 40.3628C58.9384 39.7792 59.4716 39.2911 59.8582 38.9309C61.7371 37.174 61.4283 37.3969 64.3623 34.9669C62.0647 37.0755 61.9745 37.2624 59.9526 39.039C59.8063 39.1669 59.6481 39.3044 59.4755 39.4534C59.6178 39.3524 59.7986 39.211 59.9776 39.0676C60.5609 38.5981 61.1232 38.1128 60.5526 38.6994C62.9369 36.5712 62.1163 37.1884 62.9906 36.3188C63.7623 35.5531 65.3423 34.098 65.205 34.1195C65.3962 33.9992 65.5412 33.9195 65.7328 33.7977C67.2563 32.376 68.7448 30.951 70.1615 29.4347C69.5916 30.1099 69.0038 30.7689 68.4014 31.4247C68.8965 30.9584 69.3667 30.5068 69.8478 30.0273C70.8659 28.7146 72.816 27.377 72.9564 25.1572C72.8624 24.7179 72.3512 24.5276 71.9949 24.5575C71.6169 24.5696 71.2733 24.6721 70.9482 24.7878C70.3012 25.0258 69.7388 25.3352 69.2411 25.6298C68.2521 26.224 67.531 26.7756 67.186 27.0724C66.9308 27.2957 66.8865 27.3816 67.127 27.2815C65.1798 28.7422 64.9104 28.9159 63.8165 29.6883C63.7154 29.8005 63.6146 29.9072 63.5148 30.0227C62.2714 30.9738 61.3597 31.842 60.2864 32.6988C59.1941 33.574 58.863 33.7388 58.8109 33.982C58.0989 34.5257 57.3825 35.0896 56.6727 35.6483C56.2878 36.0264 55.9017 36.4071 55.5187 36.7874C54.8625 37.3362 54.2151 37.8826 53.5689 38.4324C53.2737 38.7872 50.7695 40.9943 49.7199 42.0301C48.6402 42.9181 48.4919 42.7048 46.1222 44.9868C46.2261 44.9734 46.329 44.9608 46.4329 44.9475C45.8766 45.4524 45.3174 45.9631 44.758 46.477C44.7114 46.4937 44.6691 46.5062 44.6225 46.5229C44.9059 46.2619 45.1863 46.0045 45.4715 45.7438C45.2045 45.9495 44.9432 46.1506 44.6814 46.3525C43.8833 47.1803 43.0864 48.0139 42.2901 48.8542C43.44 47.7949 44.5857 46.7525 45.7488 45.7066C44.3558 47.0852 43.3466 47.9905 42.1601 49.2092C41.0463 50.1723 41.4019 49.7593 41.7655 49.2774C41.3814 49.6611 40.9834 50.0597 40.5955 50.4505C40.7887 50.1354 40.093 50.727 42.3947 48.5065C42.2175 48.6411 42.0383 48.7795 41.8652 48.9093C41.49 49.2788 41.2358 49.4949 40.8237 49.9113C39.7073 51.0399 38.9805 51.9903 39.0904 51.9608C39.1583 51.9343 40.2111 50.8167 40.1994 50.888C40.1638 51.0678 37.5935 53.5267 41.3306 50.0041C40.1441 51.2544 39.8638 51.4602 38.5 52.7886C38.6285 52.7088 38.7541 52.6317 38.8791 52.5557C38.2421 53.1663 37.6359 53.7506 36.998 54.3712C37.7218 53.3872 33.1596 57.9153 37.1254 53.6834C35.898 54.9055 34.7009 56.1149 33.5202 57.3276C33.747 57.0665 33.9766 56.8034 34.2087 56.5386C34.7543 55.9902 35.3044 55.4414 35.8438 54.907C35.1964 55.5173 34.5204 56.1623 33.8709 56.786C32.4158 58.3501 31.8903 59.002 31.2678 59.7754C33.0117 58.0118 32.411 58.5345 33.7398 57.13C33.7285 57.2122 33.8224 57.1799 33.7432 57.3362C32.9686 57.9844 30.7592 60.4275 30.2653 60.9769C28.7032 62.6952 29.8533 61.295 28.8162 62.429C27.7757 63.5709 26.5956 65.0065 25.7347 65.8828C25.7919 65.9009 25.9081 65.8517 25.9992 65.8219C24.4501 67.7111 24.7425 67.2894 24.5662 67.4872C23.5971 68.7226 22.6181 69.6477 22.3622 71.0796C22.5134 71.6862 23.1528 71.3662 23.3412 71.3195C23.4846 71.2674 23.6453 71.1981 23.826 71.1101C23.9722 71.0384 24.0881 70.9768 24.2346 70.8961C24.8931 70.5277 25.3408 70.233 26.0683 69.7427C26.6683 69.3373 27.3544 68.8836 28.0836 68.3592C27.6194 68.6693 27.1037 69.0009 26.6148 69.3031C29.0167 67.5405 27.9314 68.334 25.9713 69.5969C25.6271 69.8223 25.2874 70.0362 24.9703 70.2244C25.2918 70.0294 25.6248 69.8141 25.9638 69.5856C27.7306 68.4214 28.8078 67.5417 30.1006 66.4566C31.6121 65.2232 34.0592 62.9014 34.9128 62.0133C33.0429 64.1088 30.7633 66.1698 28.2513 68.0098C28.554 67.8603 28.8901 67.6698 29.203 67.5084C30.6505 66.2439 31.4966 65.5716 31.992 65.1505C33.3824 63.9338 33.2595 63.8858 34.1194 63.1823C34.0609 63.188 34.0153 63.1892 33.9588 63.1962C36.66 60.51 39.2335 57.2828 40.5426 55.1646C40.7513 55.0253 40.9164 54.9412 41.1392 54.7816C42.0016 53.4137 42.816 52.2754 43.5076 51.1209C44.1982 49.9535 43.8807 50.3477 44.6508 48.9718C44.7905 48.7197 45.1514 48.1818 45.4621 47.5506C45.7962 46.8994 46.8215 44.4008 47.1607 44.1988C47.7706 42.9941 48.354 41.7992 48.9035 40.6141C48.3832 41.7752 47.8115 42.9917 47.2464 44.1392C47.7901 43.1796 48.3253 42.1971 48.8404 41.2186C48.8564 41.0716 48.8717 40.9235 48.8857 40.7812C50.0868 38.0243 50.9871 36.076 52.063 33.2432C52.2386 32.7702 51.7309 33.859 52.5436 31.7628C53.2753 29.8376 53.9482 28.422 54.9183 25.3128C54.9992 25.0514 55.0813 24.7801 55.1645 24.498C55.2181 24.3153 55.4292 23.1992 55.9079 21.9152C56.0179 21.6213 55.6703 22.8918 55.9032 22.2111C56.1418 21.5421 57.0318 18.4794 57.1539 18.2495C57.1224 18.2763 57.0466 18.4633 56.9979 18.5514C57.1328 18.0145 57.2595 17.4963 57.39 16.9517C57.4428 16.9126 57.4965 16.8696 57.549 16.8306C58.2137 13.7684 58.5031 12.1729 59.3098 7.60857C59.054 8.88664 58.7545 10.1581 58.4322 11.4139C58.3996 11.7767 58.3673 12.1291 58.3329 12.4818C57.8554 14.5746 57.3198 16.6321 56.7371 18.6941C56.6916 19.0406 56.6453 19.3852 56.5949 19.74C56.4352 20.284 56.2749 20.8189 56.1086 21.3636C56.1144 21.2211 56.1225 21.0708 56.1307 20.9189C55.8267 21.9954 55.5107 23.0722 55.1853 24.1425C55.6826 21.9194 56.9832 18.0642 56.7354 18.2966C56.8941 17.8133 57.0468 17.343 57.2011 16.8557C57.1752 16.62 57.461 15.6466 57.8879 13.8886C57.755 14.2776 57.6097 14.7105 57.478 15.074C57.9623 13.3778 58.6158 10.3486 58.9303 8.55457C59.0691 7.78138 58.9998 8.56379 59.045 8.33491C59.2972 7.14438 59.4566 4.81429 59.4711 4.33307C59.5172 3.71185 59.5464 3.13972 59.5184 2.58732C59.5033 2.3186 59.4742 2.03925 59.3959 1.79596C59.3498 1.6615 59.2951 1.54398 59.1936 1.46441C59.0888 1.38171 58.9461 1.39238 58.8195 1.45803C57.5774 2.08548 56.38 2.85374 54.9963 4.01655C57.6512 2.07989 56.2124 3.1418 57.2092 2.534C57.3913 2.41365 58.7967 1.58663 58.8817 1.57274C58.8859 1.57117 58.8863 1.57162 58.8825 1.57428C58.8518 1.6075 58.24 1.88787 56.6551 2.96951C55.9732 3.09542 48.8508 9.56803 51.0808 7.32743C49.9966 8.45634 49.2082 9.38531 48.3221 10.5059C45.9287 13.0699 46.9095 12.2938 47.6277 11.5726C47.2787 12.0221 46.9526 12.4607 46.613 12.9355C47.1725 11.7941 43.5817 17.0893 42.8721 19.1612C42.59 19.8269 43.4869 18.0172 42.8032 19.5411C42.6189 19.9333 42.4311 20.3491 42.2457 20.7824C42.0898 21.1467 41.935 21.515 41.7876 21.872C42.3267 20.7726 41.4782 23.0132 41.5865 23.0184C40.9602 24.4142 40.4019 25.4634 40.5918 24.6352C40.1984 25.8408 39.8246 27.0621 39.475 28.2798C39.6766 27.7284 39.8864 27.1664 40.0969 26.6188C38.6781 30.5138 37.4849 35.7107 37.0951 36.5041C36.9649 37.0415 36.8395 37.5733 36.7158 38.1137C36.7108 38.2875 36.7076 38.4553 36.7035 38.6282C36.124 41.0403 35.6115 43.4692 35.1646 45.9131C35.5232 43.7308 35.5722 43.1993 36.0772 40.9351C35.8552 41.8041 35.6384 42.6932 35.4382 43.5427C34.9253 47.0092 34.8698 47.4809 34.1817 52.6903C34.1349 52.9332 33.6577 56.8649 33.6554 57.01C33.5685 57.6172 33.583 56.6855 33.5417 56.9561C33.3883 57.7104 33.0568 62.4015 33.0798 62.3176C32.4923 61.1279 34.2087 45.367 35.3155 41.2175C36.7571 34.1185 38.7372 27.1469 41.4696 20.4634C44.8617 12.2947 50.8633 5.3371 58.4729 0.818984C58.6102 0.747446 58.7408 0.690779 58.96 0.672641C59.1767 0.655303 59.4199 0.721766 59.5946 0.840434C59.9317 1.08136 60.0088 1.30911 60.0933 1.50137C60.2273 1.85514 60.266 2.17629 60.2956 2.45107C60.3508 3.03215 60.341 3.56991 60.3169 4.11826C60.2654 5.18218 60.1397 6.23881 59.9897 7.27929C59.6861 9.35636 59.2687 11.4181 58.8056 13.4447C57.8683 17.5217 56.7261 21.5154 55.454 25.4841C49.8482 42.3957 41.8828 59.9634 26.3835 70.2164C25.9869 70.4805 25.6241 70.7125 25.293 70.9141C24.9799 71.1064 24.4917 71.3855 24.1689 71.5427C23.9875 71.6335 23.7054 71.7602 23.5039 71.8289C23.3472 71.8792 22.9569 72.0275 22.5555 71.941C22.445 71.9217 22.2081 71.8257 22.0713 71.6668C21.9252 71.5174 21.8508 71.2746 21.8405 71.172C21.8102 70.9532 21.8422 70.7747 21.8881 70.6004C21.9801 70.2869 22.054 70.144 22.1793 69.8953C22.4258 69.4414 22.2761 69.6388 22.3781 69.4591C23.0466 68.3483 23.8203 67.4944 24.1046 67.1281C24.7348 66.3435 24.331 66.7601 24.7696 66.2199C29.3978 60.6812 34.1333 55.9388 39.2074 50.8881C39.5368 50.5628 39.2301 50.9267 39.8061 50.3496C40.1023 50.0522 41.007 49.0722 41.6849 48.4154C44.0768 46.0981 46.1172 44.1976 48.6975 41.8186C50.1051 40.5199 52.2499 38.5885 53.8549 37.1739C54.5625 36.5488 55.2953 35.867 55.9963 35.2597C56.9978 34.3935 56.8414 34.6141 56.9979 34.4846C57.6937 33.9124 57.7431 33.7794 58.3888 33.2361C59.6159 32.2105 59.6967 32.199 61.2578 30.9179C62.3688 30.0015 64.9235 27.9391 66.391 26.8492C66.5279 26.7503 66.6656 26.6512 66.8038 26.5521C67.647 25.9494 68.5553 25.3319 69.5699 24.7932C70.0841 24.5254 70.6151 24.2719 71.2448 24.1038C71.5612 24.026 71.9022 23.9536 72.3422 24.0128C72.7667 24.0327 73.4055 24.486 73.5036 25.0032C73.7127 26.0775 73.2184 26.6152 72.9348 27.1442C72.6017 27.6684 72.2477 28.1194 71.8882 28.5565C71.1756 29.4162 70.4473 30.1905 69.7727 30.8886C68.1224 32.5716 67.9007 32.662 67.2193 33.3179C64.7659 35.6375 62.9284 37.3799 60.549 39.4702C60.5076 39.5064 60.4661 39.5428 60.4245 39.5791C57.3278 42.2841 54.4949 44.6167 51.4342 47.1834C50.9271 47.6082 51.0812 47.5566 50.5912 47.9692C48.765 49.5068 46.4259 51.4635 44.7796 52.8114C42.9513 54.3081 42.2169 54.7998 40.4378 56.2799C39.9148 56.7145 39.8088 56.8994 38.9333 57.6266C37.534 58.7886 35.9429 59.9946 34.9532 60.7862C33.5934 61.8736 34.8188 60.9828 32.988 62.4477C32.9125 62.508 32.6038 62.6861 32.2135 63.0039C31.0797 63.9258 31.2142 63.8745 29.5379 65.2127C29.3765 65.3423 27.1166 67.0798 26.8982 67.2523C25.5926 68.2926 22.947 70.3602 22.1841 70.9722C19.4324 73.1805 21.6646 71.5391 19.1977 73.2355C18.1694 74.0914 17.1734 74.9185 16.0828 75.8087C16.7965 75.2137 13.7653 77.4567 13.537 77.6274C13.2454 77.8535 13.0384 78.0166 12.8815 78.1425C12.0465 78.8064 12.5238 78.5194 10.6285 79.8986C13.5054 77.5835 7.72198 82.0328 6.30241 82.8988C5.3705 83.5045 4.43997 84.1021 3.38398 84.596C3.11151 84.7186 2.84112 84.8334 2.49788 84.9214C2.33872 84.959 2.14448 85.004 1.87342 84.99C1.74803 84.9816 1.57957 84.9577 1.39433 84.867C1.21184 84.7813 1.02592 84.606 0.929875 84.4283C0.736384 84.0587 0.768198 83.806 0.776052 83.6078C0.793403 83.4033 0.828388 83.2461 0.867244 83.089C0.945171 82.7839 1.03758 82.5203 1.12633 82.2644C2.89305 77.1731 4.42328 72.1489 5.95244 66.7202C6.66459 64.1891 7.54523 60.7828 8.23309 58.0852C8.39319 57.4575 8.30974 57.9407 8.45045 57.3899C8.58998 56.8403 8.39387 57.4415 8.55545 56.8099C9.55008 52.8989 10.3566 49.8278 11.0049 46.1935C11.0548 46.023 11.0647 46.0332 11.1406 45.7389C11.4311 44.016 11.9682 41.3816 12.2231 39.0836C12.3492 37.0977 13.6698 35.4915 14.6131 35.0118C18.1711 33.438 19.1799 34.0362 21.7157 34.2575C25.091 34.7629 29.7591 36.6065 27.7211 35.6966C29.8648 36.3839 31.9755 37.1907 34.0672 38.0813C34.3031 38.182 34.1206 38.1603 34.2149 38.2009C34.8129 38.4596 35.0285 38.5035 35.4393 38.678C36.5186 39.1406 34.7386 38.4243 36.2819 39.0816C37.0921 39.4334 37.6041 39.6051 39.834 40.6492C52.2466 46.4655 64.9641 54.3493 77.013 61.2661C77.1154 61.3134 77.1534 61.3262 77.2994 61.407C77.3259 61.424 77.2989 61.4016 77.4003 61.4738C77.4436 61.5174 77.5091 61.5237 77.6372 61.7695C77.6972 61.8863 77.7559 62.1865 77.6054 62.4401C77.4677 62.6669 77.3225 62.724 77.2285 62.765C76.8793 62.8645 76.8874 62.8012 76.8165 62.8053C76.7806 62.7995 76.7748 62.7981 76.756 62.7943C76.6938 62.7815 76.6273 62.7634 76.5947 62.7545C76.5097 62.731 76.4225 62.7046 76.3486 62.6817C76.2655 62.656 76.1887 62.6315 76.1156 62.6079C75.8011 62.506 75.519 62.4102 75.2062 62.3029C74.6084 62.0972 74.0241 61.8905 73.4369 61.6808C72.4491 61.3265 73.0708 61.6024 71.8412 61.1542C67.5528 59.5948 59.9262 56.5985 56.2657 55.1832C55.2729 54.8009 54.6319 54.5586 54.1334 54.3742C52.7874 53.8778 52.7651 53.9158 51.0854 53.2898C50.6405 53.1243 51.0186 53.2267 50.6151 53.0704C47.916 52.025 44.7175 50.7463 42.5259 49.9183C41.0857 49.374 41.1633 49.4716 40.1588 49.104C38.6805 48.5634 37.1162 47.9221 36.3362 47.6358C32.566 46.254 29.938 45.3723 26.4092 44.1118C26.5418 44.1729 26.6284 44.2169 26.7405 44.2707C22.5672 42.8113 18.3515 41.3788 14.1292 40.0119C14.326 40.0889 14.5179 40.1647 14.7184 40.2434C9.74183 38.6339 10.3557 38.7083 10.7095 39.12C10.3385 39.0148 9.95483 38.9083 9.61805 38.8144C9.79067 38.7212 6.83278 37.6331 2.98164 36.5914C2.71661 36.5029 0.814227 36.2586 1.062 36.1537C0.985304 36.1515 0.829716 36.1654 0.914617 36.1684C0.89258 36.1556 1.11512 36.2187 1.33879 35.8273C1.43508 35.6366 1.38391 35.4008 1.36953 35.3691C1.34749 35.2981 1.32204 35.2535 1.30282 35.2223C1.21947 35.1057 1.24752 35.1475 1.25995 35.1456C1.2915 35.1584 1.36778 35.197 1.4569 35.2368C1.52167 35.2633 1.59963 35.2951 1.69798 35.3347C1.7487 35.3647 1.80389 35.3964 1.86344 35.4296C2.55649 35.8219 3.25288 36.2163 3.93556 36.6054C4.35319 36.8014 4.77542 37.0004 5.19006 37.1956C5.26606 37.195 5.23491 37.1401 5.38168 37.175C7.29672 38.1089 11.1909 40.095 12.6929 40.8484C16.4364 42.7178 20.2674 44.5803 23.1041 46.1754C24.5027 46.8959 23.1566 46.1132 25.231 47.2136C25.4456 47.365 25.6593 47.5146 25.8887 47.6755C27.6551 48.4405 27.9738 48.7115 30.2805 49.9929C31.854 50.87 32.8756 51.3878 34.3728 52.2284C34.7467 52.4388 34.6663 52.445 34.9277 52.5895C35.7987 53.0668 38.2861 54.4148 38.8764 54.7611C42.3344 56.793 45.488 58.602 48.4101 60.9845C50.055 62.4038 51.5917 63.9694 52.9168 65.8418C53.2976 66.3919 52.8411 65.6529 53.231 66.226C53.8393 67.167 53.4243 66.6466 53.7591 67.2036C54.5919 68.8056 54.8104 68.732 55.4228 71.2781C55.5628 72.0566 55.6099 72.8791 55.4775 73.7192C55.1404 75.6046 53.9318 77.0327 52.5564 78.1452C46.9377 81.5664 40.518 82.1892 34.6726 83.4165C34.4154 83.4633 34.4383 83.5016 34.157 83.5528C32.3369 83.8833 30.483 84.1394 28.825 84.4103C26.0776 84.8578 24.0177 85.233 21.2978 85.6398C17.6344 86.1861 14.2334 86.6568 10.6833 87.153C10.4072 87.1679 10.0238 87.2873 9.5001 86.842C9.26023 86.6057 9.18727 86.3001 9.18005 86.0868C9.17226 85.8801 9.20686 85.7119 9.24426 85.5705C9.41179 85.0059 9.64954 84.6508 9.89856 84.2652C10.3885 83.5373 10.9614 82.866 11.5443 82.2211C14.6812 78.8591 17.7082 76.333 21.5675 73.1888C21.8774 72.939 22.1943 72.6849 22.5185 72.4266C38.5881 59.758 55.4001 47.4069 71.894 35.1166C72.5621 34.6182 73.1952 34.1455 73.8479 33.6571C74.2838 33.331 74.1261 33.4959 74.263 33.3907C75.5377 32.4088 75.6309 32.2746 76.1373 32.0215C77.7519 30.7684 78.2314 30.308 80.1786 28.8087C81.2122 28.0067 80.519 28.7092 82.2273 27.2808C82.9004 26.7129 82.9297 26.6522 83.1569 26.447C83.2681 26.3457 83.4276 26.2092 83.7236 25.9603C83.8762 25.8315 84.0535 25.6833 84.2798 25.4857C84.3907 25.3882 84.5156 25.2772 84.6098 25.1822C84.6275 25.1659 84.6594 25.1244 84.6229 25.1739C84.6076 25.2037 84.6117 25.1662 84.5431 25.3341C84.5246 25.4303 84.4452 25.5041 84.5483 25.8652C84.6188 26.0833 84.8422 26.2793 85.0052 26.3343C85.1681 26.3977 85.2899 26.3883 85.3059 26.3893C85.5891 26.3621 85.521 26.3431 85.5451 26.3432C85.5399 26.3434 85.4413 26.3965 85.359 26.4469C84.9214 26.7118 84.404 27.0297 83.7808 27.4266C83.6489 27.5116 82.959 27.8689 81.9563 28.5883C80.9561 29.3213 82.1409 28.5128 79.7465 30.2903C74.1237 34.4741 67.6958 40.6623 61.9361 46.5252C61.5754 46.8916 58.1023 50.4395 57.4137 51.141C56.087 52.5029 56.4125 52.2652 54.651 53.9986C53.5356 55.0908 52.541 55.9854 51.3162 57.1178L51.2935 57.1382C51.0125 57.3813 50.7256 57.6322 50.4216 57.9025C50.2293 58.0752 49.9405 58.4074 48.6894 59.5168ZM13.3231 38.3921C13.3102 38.5643 13.3116 38.792 13.3204 39.1874C13.3387 39.789 13.2961 40.8001 12.9648 42.5067C12.9139 42.7701 12.998 41.3116 12.7116 42.856C12.9112 41.6159 13.0951 40.3984 13.2054 39.1765C13.2299 38.8996 13.2693 38.6383 13.3229 38.392C13.323 38.392 13.3231 38.392 13.3231 38.3921ZM39.2645 67.2512C40.1236 66.257 40.9844 65.2607 41.8448 64.2648C42.3665 63.6609 42.9078 63.0759 43.4618 62.5068C42.9214 63.0899 42.3946 63.6879 41.8893 64.3028C41.4691 64.8143 41.0493 65.3253 40.6307 65.835C40.1741 66.3086 39.7212 66.7777 39.2645 67.2512ZM13.491 42.4353C13.4928 42.4362 13.4946 42.4371 13.4964 42.438C11.5095 41.4681 9.52944 40.511 7.53252 39.5539C7.74725 39.6359 7.96978 39.7218 8.18745 39.8054C9.76525 40.5508 11.3322 41.296 12.907 42.051C13.102 42.1792 13.2971 42.3075 13.491 42.4353ZM29.0729 50.2774C30.294 50.966 29.9747 50.8441 30.6373 51.2526C30.6373 51.2526 30.6374 51.2525 30.6374 51.2524C30.8138 51.3608 31.6358 51.8206 31.9651 52.0035C31.8588 51.9137 31.7165 51.8048 31.5987 51.7092C34.5258 53.2295 39.9982 56.5985 32.6919 52.6131C32.8155 52.6416 32.9366 52.669 33.0644 52.6999C29.4487 50.7094 25.4024 48.4835 29.0729 50.2774ZM5.88991 70.8542C4.99794 74.2735 4.70074 75.3788 3.30477 79.4409C3.46468 78.8486 3.61755 78.2697 3.77215 77.6781C4.01984 77.0089 4.26043 76.3514 4.50198 75.6828C4.50257 75.6809 4.50317 75.679 4.50376 75.6771C4.51241 75.5323 4.52113 75.3867 4.52811 75.2467C4.99315 73.7849 5.44657 72.32 5.88991 70.8542ZM48.3429 53.9105C49.2682 53.5035 48.9608 53.5669 46.7386 55.2924C45.9697 55.8898 46.7532 55.3533 46.2723 55.7214C43.6752 57.7106 43.3741 57.7481 43.9112 57.2457C45.3893 56.1306 46.8844 55.006 48.3381 53.9141C48.3397 53.9129 48.3413 53.9117 48.3429 53.9105ZM56.4656 50.6097C56.4642 50.6111 56.4627 50.6126 56.4613 50.614C56.3622 50.6343 57.2879 49.6951 56.1945 50.7053C56.9992 49.909 57.798 49.1121 58.6022 48.3061C58.3704 48.5458 58.1319 48.7916 57.901 49.0298C58.1217 48.8361 58.3446 48.6402 58.5662 48.445C58.8053 48.115 59.0939 47.8784 59.9478 47.0497C59.6684 47.2343 59.3894 47.4181 59.1088 47.6035C60.0988 46.6377 61.0876 45.6695 62.0769 44.7039C62.101 44.704 62.1254 44.7038 62.1495 44.7039C62.5012 44.3194 62.8506 43.9373 63.2021 43.5544C63.3165 43.4688 63.4278 43.3862 63.5425 43.3005C63.9765 42.8446 64.4108 42.3899 64.8467 41.9355C65.0181 41.8365 64.0467 42.8253 65.7858 41.0898C65.2831 41.656 64.7867 42.2197 64.2843 42.7921C61.6693 45.3924 59.0853 48.0201 56.4656 50.6097ZM27.9852 69.4157C31.196 66.9208 30.3102 67.6552 29.6343 68.3164C29.0773 68.6874 28.546 69.0395 27.9852 69.4157ZM64.5285 57.398C65.6624 57.745 66.7923 58.0888 67.9436 58.4393C70.2133 59.2415 72.4092 60.1887 70.7014 59.6226C68.6434 58.9369 66.5393 58.0705 64.5285 57.398ZM40.7216 42.1551C43.334 43.4641 40.8255 42.3416 40.2017 42.1055C39.4933 41.6735 38.4956 41.2048 36.8244 40.4413C38.3988 41.1396 40.2778 41.9335 40.7217 42.1549C40.7217 42.155 40.7216 42.1551 40.7216 42.1551ZM20.1997 40.9307C19.11 40.5664 17.95 40.2029 16.9819 39.8567C17.3032 39.8842 19.2728 40.6089 17.8809 40.0321C18.5886 40.2646 19.3323 40.511 20.0226 40.7408C19.5618 40.6336 20.1513 40.8671 20.1969 40.9295C20.1978 40.9299 20.1988 40.9303 20.1997 40.9307ZM23.9802 84.1004C26.2786 83.8335 26.6984 83.7307 28.9868 83.2973C29.3255 83.3146 26.604 83.8782 24.8918 84.1672C24.5904 84.1448 24.2842 84.1228 23.9802 84.1004ZM59.237 2.66098C59.4858 3.16045 59.103 7.244 58.6656 9.21845C58.6935 8.98794 58.7243 8.73359 58.7506 8.49677C59.0526 6.5547 59.354 4.5681 59.237 2.66098ZM36.0371 40.0839C36.313 40.2086 36.5756 40.3279 36.8244 40.4413C36.5467 40.3177 36.2807 40.1975 36.0371 40.0839ZM41.6559 54.5136C40.961 55.1938 43.2047 53.3901 40.4816 55.5806C40.4816 55.5807 40.4817 55.5807 40.4817 55.5808C38.6785 57.0285 38.2805 57.3454 36.6156 58.6915C37.1445 58.1207 40.4877 55.3484 35.8309 59.1088C35.7696 59.1584 35.9324 59.1103 35.184 59.7058C34.9535 59.8892 34.1851 60.4438 33.0585 61.3337C32.695 61.6209 29.9667 63.801 33.6682 60.8121C33.5102 60.8419 33.6605 60.6213 33.6052 60.571C35.0356 59.3863 36.2368 58.6034 37.7571 57.3597C40.0128 55.5129 41.0628 54.4534 41.6229 54.2498C39.7602 55.8453 36.495 58.5062 35.9938 58.7586C34.15 60.2536 33.6837 60.7549 35.1987 59.5898C41.5157 54.3699 37.0421 58.2879 42.5395 53.6801C42.587 53.6054 42.7968 53.3944 42.7455 53.4031C44.5003 52.0831 41.9034 54.2722 41.6559 54.5136ZM28.211 65.1392C29.2807 64.2095 30.3446 63.2806 31.4056 62.3515C31.4662 62.424 30.9114 62.982 29.2069 64.4165C28.8753 64.6573 28.5401 64.9007 28.211 65.1392ZM28.9691 62.6953C28.8775 62.873 28.5461 63.3109 28.3118 63.6475C27.8866 63.835 21.583 71.8314 24.7062 67.7076C25.1367 67.0883 28.1912 63.6772 28.9691 62.6953ZM10.7408 84.83C10.329 85.4255 9.73611 86.3896 10.5495 86.2135C10.9305 86.1704 11.3112 86.1274 11.6915 86.0843C11.3133 86.1429 10.9348 86.2014 10.5561 86.26C9.73871 86.4719 10.1373 85.5203 10.483 84.9654C10.853 84.355 11.3063 83.7834 11.7724 83.2307C11.3939 83.7543 11.0364 84.2853 10.7408 84.83ZM71.5118 59.0924C71.9475 59.3531 70.4668 58.5571 72.1784 59.5593C70.8795 58.8424 69.6505 58.1545 68.3835 57.452C68.0331 57.2049 67.6695 56.9504 67.3012 56.6933C66.9826 56.5296 66.6849 56.3783 66.3872 56.2274C66.5843 56.2871 66.7606 56.336 66.9646 56.399C69.0625 57.7631 69.5746 57.9323 71.5118 59.0924ZM14.298 39.3704C13.9128 39.1334 17.3224 40.1727 13.9899 39.0753C14.6494 39.2148 15.6634 39.5021 17.6152 40.1408C17.9143 40.2679 18.2164 40.3961 18.5225 40.5261C18.5861 40.4723 19.1112 40.6183 20.1997 40.9307C20.2006 40.9311 20.2015 40.9315 20.2025 40.9319C23.1617 41.9255 22.9595 41.8879 23.6457 42.2459C20.5384 41.1132 20.4248 41.1918 18.2655 40.5378C16.8107 40.0991 14.9055 39.4576 14.298 39.3704ZM36.4461 54.8281C34.8935 56.5382 36.3839 55.1181 33.4621 58.0021C33.639 57.7851 33.7951 57.5905 33.9635 57.3833C34.7775 56.5353 35.6216 55.6672 36.4461 54.8281ZM3.40178 35.7242C3.5994 35.9359 5.72911 36.6552 6.1261 36.4969C4.07904 35.8619 5.04977 36.2855 3.40178 35.7242ZM41.7308 42.3582C45.4186 44.1868 44.6234 44.0154 43.0789 43.3412C42.8598 43.1944 42.6409 43.0483 42.4269 42.9054C41.7733 42.6002 41.1258 42.3022 40.4719 42.0056C40.8947 42.123 41.3101 42.2384 41.7308 42.3582ZM54.2607 74.8131C54.5511 74.0974 54.526 73.9108 54.4899 74.0372C54.444 74.1603 54.3043 74.5762 54.0779 74.9868C53.6311 75.8146 52.9063 76.5958 53.5446 75.741C54.0133 75.0639 54.4115 74.2061 54.5289 73.5684C54.6598 72.8856 54.6722 72.4859 54.7104 72.9314C54.703 73.1431 54.6837 73.3648 54.6488 73.5874C54.5861 73.9907 54.4527 74.4056 54.2633 74.8077C54.2624 74.8095 54.2616 74.8113 54.2607 74.8131ZM45.9256 60.1574C46.2506 60.5604 45.727 60.0556 47.6707 61.5578C47.7054 61.5862 47.755 61.6276 47.8146 61.6787C48.8102 62.3912 51.9437 65.9348 50.5523 64.2417C49.7345 63.3376 48.8243 62.4612 47.8564 61.6301C47.2401 61.1035 46.5939 60.6285 45.9256 60.1574ZM10.2389 53.7952C10.1838 53.8217 11.0501 49.583 11.1907 49.0369C11.1906 49.0369 11.1905 49.0369 11.1905 49.0368C11.5958 47.5963 10.6109 52.0446 11.1535 50.1459C10.0796 54.4038 9.9685 55.7247 9.74195 55.3555C10.3412 52.8433 10.1134 54.043 10.2389 53.7952ZM35.2183 45.8887C35.2179 45.8906 35.2176 45.8926 35.2173 45.8946C35.2633 45.6062 35.7728 43.2637 35.7498 43.5558C35.2089 46.3807 35.244 45.8742 34.9155 48.533C34.8661 48.6738 34.8208 48.7936 34.7702 48.9445C34.9099 47.8951 34.9663 47.3022 35.2183 45.8887ZM22.7248 71.2487C22.6088 71.2481 22.5217 71.0996 22.5393 70.9904C22.5406 70.861 22.6133 70.6516 22.6678 70.53C22.7261 70.3926 22.8385 70.1789 22.9226 70.0372C23.0055 69.8959 23.1033 69.7402 23.2148 69.5721C23.6363 68.9387 24.1415 68.2939 24.4867 67.8449C23.9909 68.5784 23.3477 69.4977 22.9674 70.2273C22.8469 70.4603 22.7772 70.6174 22.7227 70.7967C22.658 71.0243 22.6886 71.0985 22.723 71.1008C22.7674 71.1311 22.9986 71.1005 23.1255 71.0593C23.2481 71.025 23.3844 70.9756 23.5204 70.9203C23.8416 70.7847 23.9352 70.7408 24.0674 70.685C24.1815 70.6368 24.2313 70.6229 24.1911 70.6588C24.1524 70.6934 24.022 70.7795 23.8196 70.8911C23.7153 70.9486 23.511 71.0495 23.3453 71.1161C23.2558 71.1519 23.1823 71.1796 23.0803 71.2087C22.9384 71.2478 22.8148 71.2633 22.7248 71.2487ZM84.4155 26.682C84.4132 26.6841 84.4109 26.6861 84.4086 26.6881C84.4092 26.6875 84.4101 26.6866 84.4107 26.6859C84.4123 26.6846 84.4139 26.6833 84.4155 26.682ZM64.9981 34.253C65.1097 34.1702 65.1747 34.1275 65.2027 34.117C65.2034 34.1178 65.2041 34.1186 65.2049 34.1193C65.1414 34.1592 65.074 34.2024 64.9981 34.253ZM8.03087 62.5277C7.49339 64.2513 8.92556 58.4127 9.41139 56.5296C9.41212 56.6698 9.43771 56.6978 9.39894 57.0158C8.93485 58.5162 8.12472 62.2421 8.03087 62.5277ZM39.3851 47.8564C43.8192 49.4989 37.9399 47.6432 37.7707 47.3302C37.7788 47.3278 39.2669 47.8129 39.3851 47.8564ZM24.0305 35.5773C25.2196 35.7981 22.9201 35.1144 26.6274 36.1898C26.8396 36.2794 27.053 36.3709 27.268 36.4644C26.1578 36.1209 25.16 35.8423 24.0305 35.5773ZM68.3345 59.3029C73.9214 61.423 79.5099 62.9007 75.8058 61.5843C75.3641 61.4432 74.9502 61.3072 74.5083 61.1601C74.4115 61.2561 72.8492 60.6356 70.5583 59.7887C70.2199 59.7166 68.9478 59.2583 68.6843 59.2041C68.1965 59.1081 69.642 59.7048 68.3345 59.3029ZM58.9675 45.6532C58.903 45.7272 58.8402 45.8 58.7754 45.874C58.0286 46.4586 57.2849 47.0407 56.5379 47.6257C56.637 47.502 56.7362 47.3782 56.835 47.2548C57.5431 46.7228 58.2542 46.1887 58.9626 45.6567C58.9642 45.6555 58.9659 45.6543 58.9675 45.6532ZM23.8097 68.9691C24.0885 68.4533 22.6462 69.6581 19.6713 72.1302C21.0532 71.0818 22.436 70.0248 23.8097 68.9691ZM22.4535 46.4321C22.5338 46.5476 22.6121 46.662 22.6969 46.78C24.535 47.6645 24.2432 47.4285 23.4057 46.8916C23.0883 46.7381 22.775 46.5871 22.4535 46.4321ZM47.9043 61.2549C47.231 60.6894 47.5539 61.0228 47.4809 60.9613C45.7792 59.6368 45.5284 59.4582 43.2913 58.0683C43.0002 57.901 42.7359 57.7531 42.4524 57.5944C43.4037 58.3562 44.2242 58.741 46.2789 60.2796C45.9419 59.9807 45.5645 59.6635 45.2198 59.3748C46.1769 60.0314 47.132 60.7102 48.0017 61.4606C48.2103 61.642 48.4088 61.8189 48.6124 62.0048C48.7496 62.109 48.8837 62.2123 49.0184 62.3177C48.7093 62.0083 48.3846 61.6949 48.0582 61.3947C48.0082 61.3485 47.9568 61.3018 47.9043 61.2549ZM67.7802 39.1727C68.887 38.3547 70.0363 37.5042 71.1376 36.6872C71.1585 36.6294 71.1787 36.5718 71.2 36.5138C70.0744 37.3913 68.9091 38.2961 67.7802 39.1727ZM45.9689 50.8818C46.0469 50.8016 46.1225 50.7232 46.1887 50.6524C46.191 50.6699 46.1052 50.7562 45.9689 50.8818ZM34.466 49.4911C34.216 51.0517 33.9523 53.319 33.7836 55.0389C33.8634 54.9148 34.3378 50.5314 34.6363 49.0092C34.657 48.7661 34.5722 48.8221 34.466 49.4911ZM46.8032 44.924C47.1744 45.0693 47.545 45.2154 47.9107 45.3598C48.756 45.8088 49.6022 46.2641 50.4497 46.7251C50.4911 46.7081 50.5321 46.6905 50.5735 46.6735C46.8036 44.7114 47.7149 45.0938 45.8899 44.0365C46.1976 44.3328 46.4986 44.6269 46.8032 44.924ZM68.2043 39.4733C70.3961 37.3398 71.178 36.584 69.8415 37.6819C69.0695 38.4383 68.3007 39.2063 67.5408 39.976C67.7624 39.8072 67.9859 39.6375 68.2043 39.4733ZM57.9633 34.4023C56.0226 36.113 55.9215 36.0185 54.0819 37.7399C55.1041 36.871 56.1338 36.0076 57.1649 35.1564C57.4295 34.9054 57.7003 34.6499 57.9633 34.4023ZM5.14741 70.4205C4.79776 71.4412 4.45507 73.4437 3.38461 76.2974C3.21746 76.9997 3.12494 77.4506 2.98252 78.0568C2.82176 78.3806 2.64185 78.7584 2.48337 79.0706C2.48274 79.0725 2.48212 79.0744 2.48149 79.0763C1.63575 81.6942 2.25896 80.0235 2.29583 80.0974C2.31004 80.1385 1.61785 82.0563 1.87183 81.4686C2.32198 80.4623 3.53916 76.5071 3.63581 76.5374C3.17246 77.9129 2.31636 80.5999 2.64573 79.8305C3.01059 78.9901 3.69954 76.4063 4.25649 74.8026C3.37642 77.0788 4.90346 72.2842 5.18209 71.7756C5.91204 68.9158 5.12429 71.512 4.24828 74.4003C4.6867 72.6088 3.94933 75.2254 3.73507 75.6206C4.26497 73.802 6.12863 67.537 5.14741 70.4205ZM45.0589 50.4375C46.9531 51.1433 49.9103 52.3369 51.2529 52.7645C52.034 53.0118 49.0509 51.8207 51.1473 52.5442C49.2766 51.8314 48.8534 51.7045 49.1427 51.8886C48.7168 51.7343 48.2961 51.5822 47.8651 51.4265C47.6725 51.3387 47.475 51.2494 47.2832 51.162C47.0498 51.1036 46.8157 51.0448 46.5887 50.989C46.1411 50.8132 45.6903 50.6367 45.247 50.4632C45.1896 50.4568 45.096 50.4347 45.0589 50.4375ZM39.3127 57.1392C38.9703 57.5944 38.6372 58.0265 38.2775 58.4811C38.3297 58.4424 38.39 58.3944 38.4485 58.3482C38.4914 58.3158 38.5343 58.2833 38.5774 58.2506C38.3361 58.4981 36.5786 60.5175 35.8364 61.3939C35.4742 61.8246 36.4259 60.9501 34.7844 62.7269C35.9964 61.4498 37.0509 60.2165 38.12 58.8773C38.046 59.0132 37.9761 59.1436 37.9024 59.2774C37.9031 59.2767 37.9037 59.276 37.9044 59.2752C38.2591 58.8505 38.6325 58.3911 38.9842 57.9465C39.0944 57.6792 39.2022 57.4125 39.3127 57.1392ZM21.0396 45.5515C19.2903 44.7067 18.7155 44.445 19.4797 44.9362C19.4815 44.9371 19.4832 44.9381 19.485 44.939C20.1384 45.2322 20.8057 45.5337 21.4545 45.8269C21.3181 45.7361 21.1818 45.6452 21.0396 45.5515ZM58.8661 40.3684C61.7671 37.4182 54.8858 43.6321 56.2928 42.562C56.3586 42.5149 58.5635 40.5852 58.8661 40.3684ZM41.099 41.9381C42.1076 42.4221 43.1345 42.9266 44.1437 43.4317C43.9292 43.2781 43.7119 43.1237 43.4946 42.9697C42.6943 42.6187 41.8939 42.2739 41.099 41.9381ZM78.3015 30.8208C79.284 30.1585 81.7462 28.4045 82.9307 27.513C82.2772 27.9356 81.6318 28.3671 80.9906 28.8096C82.1817 27.9473 83.383 27.1254 84.6311 26.3285C84.6327 26.183 83.2102 27.1304 81.0885 28.5892C80.7562 28.8058 78.6064 30.1937 77.9909 30.8378C77.8625 30.9602 80.0292 29.3314 78.5733 30.529C79.2305 30.0322 79.7985 29.6074 80.4311 29.1524C80.4944 29.1439 80.5573 29.1357 80.6252 29.124C79.8391 29.6776 79.0682 30.241 78.3015 30.8208ZM56.1418 54.6912C58.7513 55.7113 59.0968 55.787 59.6664 55.9108C58.4513 55.4544 57.2276 54.9918 56.012 54.5302C56.058 54.5848 56.0961 54.6364 56.1418 54.6912ZM72.3053 35.2938C72.2412 35.3409 72.1815 35.385 72.1261 35.4261C71.1364 36.1606 71.6172 35.8832 71.1536 36.2466C69.3147 37.6874 68.0141 38.5915 66.1837 39.995C66.298 39.8924 66.4023 39.7983 66.5114 39.7001C66.5098 39.7013 66.5082 39.7025 66.5066 39.7037C57.7126 46.1676 62.404 42.8876 67.6358 38.9586C67.7746 38.889 67.908 38.8234 68.0456 38.7545C69.9129 37.3153 71.6796 35.9466 72.1664 35.4799C72.2897 35.3635 72.3404 35.2983 72.3053 35.2938ZM30.7833 63.6584C30.8909 63.5935 30.1328 64.3417 31.6516 63.0556C32.7773 61.947 30.8175 63.6256 30.2738 63.9835C30.6825 63.6361 31.1075 63.2756 31.5099 62.9324C28.9748 64.9137 28.6266 65.236 29.6182 64.5902C29.6885 64.544 30.6742 63.7245 30.7833 63.6584ZM47.2107 50.3416C47.4038 49.8814 44.3442 52.5518 44.4996 52.5148C44.9356 52.1584 45.2473 51.8497 45.7149 51.4851C46.1845 51.1188 46.3435 51.0578 47.2107 50.3416ZM23.3768 34.9337C23.2856 34.9061 22.0775 34.5727 22.1871 34.6749C23.6468 35.0836 26.5402 35.8009 26.0533 35.5994C25.1371 35.3388 24.4266 35.1762 23.3769 34.9335C23.3769 34.9336 23.3768 34.9337 23.3768 34.9337ZM64.6865 43.2128C64.7298 43.1752 66.8728 41.11 67.1248 40.8186C67.3228 40.5681 67.4048 40.4272 67.5454 40.2315C66.3934 41.398 64.0204 43.7228 64.6907 43.2086C64.6893 43.21 64.6879 43.2114 64.6865 43.2128Z" fill="white"/>
</svg>
